<?xml version="1.0" standalone="no"?>
<!DOCTYPE svg PUBLIC "-//W3C//DTD SVG 20010904//EN"
 "http://www.w3.org/TR/2001/REC-SVG-20010904/DTD/svg10.dtd">
<svg version="1.0" xmlns="http://www.w3.org/2000/svg"
 width="1024.000000pt" height="1024.000000pt" viewBox="0 0 1024.000000 1024.000000"
 preserveAspectRatio="xMidYMid meet">

<g transform="translate(0.000000,1024.000000) scale(0.100000,-0.100000)"
fill="#000000" stroke="none">
<path d="M0 5120 l0 -5120 5120 0 5120 0 0 5120 0 5120 -5120 0 -5120 0 0
-5120z m5230 2998 c149 -295 297 -582 485 -938 51 -96 121 -230 154 -297 l62
-121 206 99 c113 55 208 97 211 94 3 -3 1 -5 -4 -5 -6 0 -39 -21 -74 -47 -77
-56 -176 -112 -283 -159 -84 -37 -102 -41 -92 -21 4 6 -1 3 -9 -7 -9 -12 -16
-14 -16 -7 0 7 -7 19 -15 28 -14 14 -15 13 -10 -13 5 -24 4 -26 -5 -11 -6 9
-8 27 -5 38 4 12 3 19 -2 16 -5 -3 -8 10 -6 31 1 20 7 38 13 40 5 2 7 8 4 13
-3 6 -11 5 -20 -2 -16 -13 -18 -5 -5 20 7 13 5 17 -8 17 -13 0 -17 -6 -13 -21
3 -11 8 -25 13 -30 5 -7 1 -11 -9 -11 -9 -1 -26 -5 -36 -9 -13 -6 -17 -5 -12
3 3 6 2 13 -4 17 -5 3 -10 0 -10 -7 0 -9 -3 -9 -10 2 -7 12 -12 12 -22 2 -6
-6 -17 -12 -22 -12 -6 0 -4 5 4 10 12 8 12 10 -5 10 -17 0 -17 2 -5 10 13 8
12 10 -2 10 -10 0 -18 7 -18 15 0 8 -5 15 -11 15 -5 0 -7 5 -3 12 5 8 11 5 17
-10 6 -12 14 -22 19 -22 5 0 1 11 -8 25 -13 20 -14 28 -4 40 9 10 9 15 1 15
-6 0 -11 5 -11 10 0 6 7 10 16 8 10 -2 19 3 22 11 3 8 0 11 -7 7 -6 -4 -11 -2
-11 3 0 6 -5 11 -11 11 -5 0 -8 -4 -5 -9 8 -13 -37 -29 -59 -20 l-20 8 20 0
c16 1 17 3 5 11 -9 5 -19 5 -26 -1 -8 -7 -14 -6 -19 1 -7 11 -7 11 42 15 18 1
30 -1 27 -6 -3 -5 0 -9 6 -9 7 0 10 6 7 13 -2 6 -12 11 -21 11 -13 -2 -14 1
-5 12 13 15 -1 19 -17 5 -5 -5 -20 -12 -34 -16 -21 -7 -22 -6 -9 7 8 8 21 17
29 21 10 4 8 6 -7 6 -28 1 -39 18 -16 24 10 2 3 3 -15 1 -31 -3 -35 0 -55 44
-12 26 -30 58 -41 72 l-18 25 6 -30 c3 -16 9 -72 13 -124 4 -70 3 -92 -5 -87
-7 4 -12 2 -12 -3 0 -6 6 -11 13 -11 8 0 7 -4 -3 -10 -11 -7 -12 -12 -3 -18 6
-4 11 -22 11 -40 l-1 -33 -17 26 c-12 19 -17 43 -15 81 1 30 -2 57 -6 60 -5 3
-9 -1 -9 -8 0 -7 -8 -1 -18 15 -19 27 -19 27 -37 7 -10 -11 -22 -20 -27 -20
-5 0 2 10 15 23 13 12 22 29 20 37 -3 9 -1 11 4 4 4 -6 16 -13 26 -17 10 -4
15 -11 12 -17 -3 -5 -1 -10 4 -10 6 0 11 5 11 11 0 5 5 7 10 4 14 -9 12 15 -4
44 -8 15 -16 20 -20 12 -4 -6 -2 -11 3 -11 6 0 11 -4 11 -8 0 -5 -7 -9 -15 -9
-8 0 -12 4 -9 9 4 5 -3 12 -15 15 -12 3 -21 9 -21 14 0 5 -5 9 -11 9 -6 0 -9
-7 -5 -15 10 -28 -3 -15 -19 18 -11 21 -12 27 -2 15 12 -15 16 -15 41 -2 32
16 50 19 24 3 -10 -5 -18 -15 -18 -21 0 -7 6 -6 15 2 13 11 15 10 9 -6 -5 -18
-5 -18 6 0 10 15 8 27 -11 67 -13 28 -29 49 -38 49 -14 0 -14 1 -1 10 14 9 13
11 -9 14 -5 0 -13 5 -18 10 -5 5 -3 6 5 2 14 -8 15 -5 6 18 -3 9 -10 14 -14
11 -5 -3 -12 0 -16 6 -4 8 -3 9 4 5 14 -8 16 6 3 19 -4 6 -50 91 -101 190 -51
99 -94 182 -97 185 -3 3 -4 -481 -3 -1075 3 -1296 1 -2300 -4 -2294 -2 2 -6
281 -10 619 -3 338 -8 669 -11 735 -3 66 -7 194 -10 285 -3 91 -7 176 -8 190
-2 14 0 33 5 42 4 9 4 19 0 22 -5 3 -8 19 -7 36 1 16 -2 30 -7 30 -5 0 -4 9 2
20 10 19 6 24 -13 21 -5 -1 -7 4 -4 11 2 7 10 12 16 10 7 -1 9 3 6 9 -5 8 -12
6 -23 -5 -14 -14 -17 -14 -34 0 -16 15 -19 14 -46 -13 -25 -25 -31 -27 -39
-14 -8 13 -10 11 -10 -10 0 -22 3 -25 28 -21 20 3 29 9 27 21 -2 10 5 17 20
19 21 3 22 1 13 -17 -18 -32 -13 -49 19 -65 19 -9 30 -11 30 -4 0 6 3 9 6 5 3
-3 3 -11 -1 -17 -5 -8 -11 -8 -21 1 -7 6 -21 9 -29 5 -9 -3 -15 0 -15 9 0 8
-4 15 -10 15 -5 0 -7 6 -4 14 5 12 0 13 -30 4 -25 -8 -32 -14 -24 -20 9 -5 7
-8 -7 -9 -11 0 -15 -3 -9 -5 7 -3 10 -15 7 -27 -4 -21 -4 -21 10 -4 11 14 16
15 20 5 4 -10 10 -8 21 6 9 11 16 15 16 9 0 -6 -7 -16 -15 -23 -8 -7 -15 -17
-15 -22 0 -6 7 -4 17 3 15 13 15 12 2 -8 -8 -13 -21 -23 -29 -23 -11 0 -12 3
-3 8 8 5 9 13 3 22 -7 11 -10 12 -10 2 0 -7 -5 -10 -12 -6 -7 4 -8 3 -4 -4 4
-7 2 -12 -4 -12 -7 0 -10 -6 -7 -12 2 -7 11 -12 18 -10 8 1 5 -4 -5 -13 -19
-15 -19 -15 2 -15 12 0 22 5 22 11 0 5 5 7 12 3 8 -5 2 -12 -18 -20 -29 -12
-31 -16 -33 -73 -2 -53 0 -61 16 -62 16 -1 17 -2 1 -6 -19 -5 -22 -48 -5 -70
6 -9 6 -13 -1 -13 -8 0 -12 -76 -13 -247 0 -137 0 -255 0 -263 3 -96 1 -242
-4 -250 -3 -5 -3 -10 2 -10 6 0 9 -90 3 -120 0 -3 -8 4 -16 15 -16 20 -16 20
-10 -2 4 -12 2 -24 -4 -28 -5 -3 -10 -12 -10 -18 0 -7 7 -4 14 6 19 25 22 22
22 -28 0 -24 -2 -43 -4 -40 -3 2 -13 0 -24 -6 -16 -9 -19 -7 -18 8 4 31 0 43
-11 43 -6 0 -9 -7 -6 -15 4 -8 2 -17 -3 -20 -6 -4 -10 -1 -10 5 0 6 -7 18 -16
27 -8 9 -13 22 -10 30 3 8 1 11 -5 8 -5 -4 -7 -16 -3 -28 6 -19 5 -20 -10 -8
-14 11 -16 11 -16 -2 0 -10 7 -15 20 -12 26 5 36 -12 11 -20 -19 -6 -37 -45
-21 -45 5 0 10 8 12 18 3 11 6 8 10 -11 5 -25 3 -28 -16 -23 -18 4 -19 3 -5
-7 9 -7 14 -19 12 -27 -4 -13 -3 -13 7 0 10 13 11 12 6 -3 -3 -9 -1 -28 4 -41
4 -13 5 -27 0 -32 -9 -10 -13 -35 -11 -72 1 -16 5 -21 14 -16 7 4 9 3 4 -2 -5
-5 -13 -10 -18 -10 -5 -1 -13 -2 -17 -3 -12 -2 -13 -51 -1 -51 5 0 7 -4 4 -10
-3 -5 -2 -10 2 -10 5 0 9 -9 9 -19 0 -11 -4 -18 -7 -15 -12 7 -18 -11 -9 -26
5 -9 5 -20 -2 -27 -8 -10 -6 -17 8 -28 12 -10 14 -14 5 -13 -10 2 -16 -7 -17
-24 -2 -16 1 -28 7 -28 5 0 9 -4 9 -10 0 -5 -6 -7 -14 -4 -16 6 -19 92 -3 111
6 9 6 13 -2 13 -7 0 -11 193 -11 683 -1 1470 -4 2066 -10 2062 -3 -2 -26 -42
-50 -89 -30 -58 -47 -82 -53 -73 -6 8 -7 6 -3 -6 7 -22 -41 -120 -54 -112 -5
3 -7 0 -4 -8 3 -8 -2 -19 -9 -26 -12 -9 -18 -8 -31 4 -19 20 -21 7 -2 -17 7
-10 16 -14 20 -10 5 4 -7 -21 -26 -55 -18 -35 -40 -63 -48 -63 -13 0 -13 -1 0
-10 12 -8 12 -10 -5 -10 -17 0 -17 -2 -5 -10 11 -7 11 -10 2 -10 -7 0 -10 -5
-6 -11 4 -7 0 -9 -14 -5 -21 7 -41 -22 -23 -33 6 -4 6 -12 2 -20 -6 -9 -11
-10 -15 -2 -8 13 -26 5 -26 -10 0 -6 4 -8 9 -4 5 3 12 1 16 -5 3 -6 -4 -10
-17 -11 -22 0 -22 -1 -3 -9 11 -5 15 -9 9 -9 -7 -1 -15 -12 -18 -26 -6 -22 -9
-24 -21 -12 -14 15 -15 33 -2 54 11 17 -1 39 -23 40 -11 1 -27 9 -36 17 -21
22 -31 20 -11 -2 11 -12 13 -22 6 -35 -7 -11 -7 -17 1 -17 5 0 10 5 10 10 0 6
5 10 11 10 6 0 8 -8 5 -17 -6 -17 -5 -17 8 0 7 9 16 17 19 17 10 0 -18 -65
-32 -76 -18 -14 -6 -34 22 -35 12 0 16 -3 9 -6 -6 -2 -10 -9 -7 -13 3 -5 1
-11 -5 -15 -5 -3 -10 0 -10 8 0 10 -8 13 -24 10 -13 -3 -27 0 -30 6 -4 6 0 11
11 11 15 0 16 2 3 10 -11 7 -21 3 -37 -15 -27 -28 -33 -59 -7 -33 15 15 19 15
48 -1 42 -22 42 -21 31 -29 -6 -4 -16 -19 -22 -34 -7 -16 -18 -28 -25 -27 -10
0 -10 2 -1 5 17 7 4 34 -16 35 -10 0 -12 2 -3 6 7 3 19 -1 27 -7 11 -9 15 -9
15 -1 0 6 -7 14 -15 17 -8 4 -13 10 -10 14 3 5 1 11 -5 15 -5 3 -10 1 -10 -4
0 -6 -9 -11 -20 -11 -11 0 -20 -5 -20 -12 0 -6 3 -8 7 -5 7 8 32 -22 33 -40 0
-6 -11 -10 -25 -9 -13 2 -22 -1 -19 -5 8 -13 -9 -10 -28 5 -13 10 -15 15 -6
24 7 7 9 12 4 12 -9 0 -36 -26 -36 -34 0 -3 3 -5 8 -5 18 3 30 -2 36 -16 6
-16 -14 -16 -27 0 -4 6 -15 1 -26 -12 -18 -22 -38 -32 -27 -14 3 4 -6 6 -20 3
-19 -3 -22 -7 -12 -13 10 -7 9 -9 -4 -9 -21 0 -22 -9 -7 -30 9 -13 10 -12 5 3
-3 9 -1 17 5 17 6 0 9 -8 7 -17 -2 -11 -13 -18 -26 -18 -12 0 -22 -4 -22 -8 0
-29 1 -31 10 -17 6 10 10 11 10 3 0 -7 -17 -21 -37 -30 -21 -10 -38 -23 -39
-28 0 -6 -4 -25 -8 -44 -8 -34 -9 -34 -21 -11 -8 15 -15 19 -19 11 -4 -6 -1
-11 6 -11 7 0 2 -7 -10 -16 -12 -8 -22 -21 -22 -27 1 -8 5 -7 13 3 11 14 80
22 71 8 -7 -10 -96 -38 -105 -32 -5 3 -9 1 -9 -4 0 -5 -60 -26 -132 -46 -73
-21 -141 -40 -150 -42 -12 -4 -18 0 -18 11 0 11 5 15 14 12 10 -4 12 0 9 13
-6 24 -24 21 -40 -5 -11 -19 -12 -19 -19 -1 -7 17 -8 17 -21 -5 -8 -13 -12
-16 -9 -6 6 19 -18 24 -29 6 -4 -5 -12 -8 -18 -6 -7 2 -18 -3 -25 -12 -8 -9
-11 -10 -7 -3 7 13 4 15 -19 6 -9 -3 -12 -13 -9 -22 4 -13 2 -12 -11 3 -11 13
-19 16 -22 9 -3 -7 -14 -10 -24 -7 -12 3 -20 0 -20 -7 0 -7 -7 -10 -15 -7 -8
4 -17 2 -20 -2 -2 -5 5 -12 18 -16 19 -6 20 -8 4 -12 -10 -3 -27 3 -38 13 -18
16 -19 16 -13 1 3 -10 1 -17 -5 -17 -6 0 -11 5 -11 11 0 12 -43 1 -48 -12 -2
-4 -10 -5 -19 -2 -12 5 -14 3 -8 -7 5 -9 4 -11 -3 -6 -10 6 -134 -16 -227 -40
-16 -4 -17 -3 -5 4 43 27 511 169 768 233 37 9 51 17 47 26 -3 10 0 11 12 5
18 -10 55 -4 48 8 -2 4 3 7 13 7 42 0 59 4 78 17 10 8 16 18 12 22 -4 4 -16 1
-25 -7 -17 -12 -17 -12 -1 6 15 16 19 17 34 4 10 -8 15 -9 11 -2 -4 6 -4 13 1
15 15 6 101 169 96 182 -3 8 -1 17 5 21 7 3 8 0 5 -9 -3 -9 -4 -16 -1 -16 10
0 322 579 499 925 70 138 165 323 210 412 242 472 320 623 325 623 0 0 70
-136 153 -302z m755 187 c0 -28 -29 -25 -33 3 -3 19 0 23 15 20 10 -2 18 -12
18 -23z m-2945 -234 c0 -28 -24 -45 -40 -26 -16 20 -6 45 20 45 13 0 20 -7 20
-19z m-555 -81 c0 -29 -32 -41 -41 -16 -9 24 4 48 23 44 12 -2 18 -12 18 -28z
m4831 -156 c8 -30 -11 -54 -41 -54 -36 0 -50 61 -19 78 25 14 53 3 60 -24z
m-3056 -24 c0 -11 -7 -20 -15 -20 -8 0 -15 9 -15 20 0 11 7 20 15 20 8 0 15
-9 15 -20z m-1250 -124 c0 -8 -5 -18 -11 -22 -14 -8 -33 11 -25 25 10 16 36
13 36 -3z m3083 -124 c24 -21 22 -67 -5 -92 -29 -27 -54 -25 -83 5 -32 31 -32
59 0 91 27 27 54 26 88 -4z m995 -30 c4 -25 -23 -41 -40 -24 -7 7 -6 17 2 32
14 26 34 22 38 -8z m-3848 -71 c0 -19 -23 -35 -34 -24 -14 15 -5 43 14 43 13
0 20 -7 20 -19z m688 -30 c18 -11 11 -45 -10 -49 -17 -3 -34 30 -23 48 7 12
16 12 33 1z m3241 -123 c-83 -99 -147 -164 -247 -250 -150 -130 -283 -228
-309 -228 -12 0 -23 -4 -23 -10 0 -5 8 -6 18 -3 15 6 15 5 3 -10 -18 -23 -42
-22 -34 1 5 14 3 13 -10 -3 -11 -15 -12 -22 -4 -27 7 -4 8 -8 2 -8 -5 0 -16 4
-24 9 -9 6 -20 3 -32 -8 -10 -9 -55 -36 -101 -60 -46 -23 -96 -50 -113 -59
-16 -9 -32 -17 -35 -17 -3 -1 -30 -14 -60 -30 -112 -59 -170 -84 -175 -75 -3
5 10 14 30 21 19 7 37 21 40 30 4 12 12 16 23 12 13 -5 14 -3 5 7 -9 9 -19 7
-48 -13 -21 -14 -44 -23 -53 -20 -10 4 -13 2 -8 -5 6 -11 2 -13 -19 -12 -3 1
-13 -6 -21 -15 -9 -8 -21 -15 -27 -16 -28 -2 -50 -8 -60 -18 -6 -6 -18 -11
-26 -11 -9 0 7 14 34 30 28 16 50 33 50 37 0 4 4 7 9 5 5 -2 6 5 2 14 -5 14
-4 15 8 5 8 -7 15 -8 18 -2 1 5 10 11 18 13 8 2 23 11 34 21 14 11 22 14 27 6
4 -7 9 -8 13 -1 7 12 -25 26 -33 15 -3 -4 -17 -10 -31 -11 -14 -2 -27 -8 -28
-13 -2 -5 -7 -7 -12 -4 -5 3 -21 0 -37 -6 -43 -17 -396 -99 -401 -94 -7 7 47
28 263 105 214 77 436 158 540 197 250 95 633 331 815 501 36 34 67 61 68 62
2 0 -20 -28 -49 -62z m799 26 c4 -29 -23 -51 -43 -34 -16 13 -20 42 -8 54 14
14 48 1 51 -20z m-5040 -27 c4 -20 -25 -34 -40 -19 -15 15 -1 44 19 40 10 -2
19 -11 21 -21z m401 9 c15 -18 3 -46 -19 -46 -10 0 -21 7 -24 16 -6 16 9 44
24 44 4 0 13 -6 19 -14z m839 -39 c2 -10 -3 -17 -12 -17 -10 0 -16 9 -16 21 0
24 23 21 28 -4z m2562 -36 c0 -29 -14 -42 -37 -34 -14 5 -18 45 -6 56 3 4 15
7 25 7 13 0 18 -8 18 -29z m-1356 -39 c3 -5 -1 -9 -9 -9 -8 0 -15 4 -15 9 0 4
4 8 9 8 6 0 12 -4 15 -8z m-30 -20 c3 -5 -1 -9 -9 -9 -8 0 -12 4 -9 9 3 4 7 8
9 8 2 0 6 -4 9 -8z m43 -8 c-3 -3 -12 -4 -19 -1 -8 3 -5 6 6 6 11 1 17 -2 13
-5z m648 -24 c0 -16 -6 -26 -19 -28 -24 -5 -37 17 -25 41 14 26 44 17 44 -13z
m-2505 -30 c0 -5 -2 -10 -4 -10 -3 0 -8 5 -11 10 -3 6 -1 10 4 10 6 0 11 -4
11 -10z m337 -26 c9 -23 -11 -38 -26 -20 -13 16 -7 36 10 36 5 0 12 -7 16 -16z
m1466 -25 c-9 -9 -12 -7 -10 9 1 14 5 18 11 12 7 -7 6 -14 -1 -21z m227 -24
c0 -12 -19 -12 -23 0 -4 9 -1 12 9 8 7 -3 14 -7 14 -8z m1588 -87 c-210 -229
-454 -408 -713 -523 -30 -13 -55 -22 -55 -20 0 2 44 35 98 74 53 39 106 78
117 86 19 15 19 16 -2 5 -35 -16 -27 -3 8 16 18 9 28 11 24 4 -12 -19 27 4
185 111 142 96 311 230 379 303 19 20 37 36 39 36 3 0 -34 -42 -80 -92z m141
42 c-17 -27 -33 -50 -35 -50 -7 0 51 100 58 100 4 0 -6 -22 -23 -50z m-1911
-5 c-3 -3 -9 2 -12 12 -6 14 -5 15 5 6 7 -7 10 -15 7 -18z m37 -15 c3 -6 -1
-7 -9 -4 -18 7 -21 14 -7 14 6 0 13 -4 16 -10z m-45 -15 c0 -8 -4 -15 -10 -15
-5 0 -7 7 -4 15 4 8 8 15 10 15 2 0 4 -7 4 -15z m2410 -5 c0 -11 -7 -20 -15
-20 -15 0 -21 21 -8 33 12 13 23 7 23 -13z m-2374 -13 c1 -9 -2 -15 -7 -11 -5
3 -7 9 -4 14 3 4 0 11 -5 13 -6 3 -5 4 1 3 7 -1 13 -10 15 -19z m249 -19 c-4
-9 -16 -18 -28 -22 -21 -5 -21 -4 -4 9 13 9 15 15 7 20 -9 6 -9 10 1 16 18 11
31 -3 24 -23z m-265 -12 c0 -2 -8 -10 -17 -17 -16 -13 -17 -12 -4 4 13 16 21
21 21 13z m2100 -35 c0 -23 -16 -36 -25 -21 -9 14 1 40 15 40 5 0 10 -9 10
-19z m-1842 -27 c-4 -3 -12 5 -18 18 -12 22 -12 22 6 6 10 -10 15 -20 12 -24z
m-224 -24 c-6 -6 -10 -3 -10 10 0 13 4 16 10 10 7 -7 7 -13 0 -20z m-2680 -6
c19 -18 20 -28 6 -55 -20 -37 -80 -18 -80 26 0 42 44 59 74 29z m2660 -9 c3
-9 0 -12 -9 -9 -7 3 -16 12 -19 19 -3 9 0 12 9 9 7 -3 16 -12 19 -19z m46 1
c0 -3 -4 -8 -10 -11 -5 -3 -10 -1 -10 4 0 6 5 11 10 11 6 0 10 -2 10 -4z m235
-14 c-3 -3 -11 0 -18 7 -9 10 -8 11 6 5 10 -3 15 -9 12 -12z m125 -30 c-7 -3
-8 -7 -3 -11 6 -3 13 -18 16 -32 6 -23 4 -26 -18 -26 -14 0 -28 3 -31 8 -3 5
-14 9 -25 9 -11 0 -18 4 -14 10 3 5 12 7 19 4 16 -6 48 35 39 49 -4 6 -13 1
-21 -11 -10 -15 -25 -22 -46 -22 -23 0 -27 3 -16 9 8 6 18 7 23 4 5 -3 17 4
28 16 11 12 24 19 30 16 5 -4 9 0 9 7 0 7 6 4 12 -6 9 -15 8 -21 -2 -24z m767
-65 c-31 -40 -116 -134 -189 -208 -100 -102 -149 -144 -198 -170 -90 -47 -100
-51 -94 -34 3 8 13 11 22 7 15 -5 16 -4 2 13 -8 10 -10 16 -3 12 7 -4 30 3 52
17 21 14 40 24 42 23 2 -1 17 10 33 25 16 16 24 28 19 28 -5 0 -18 -8 -29 -18
-11 -11 -27 -18 -37 -16 -9 1 -17 -2 -17 -8 0 -5 -9 -6 -22 -3 -17 6 -20 4
-15 -9 4 -9 2 -16 -4 -16 -5 0 -13 9 -17 19 -6 18 -10 19 -37 6 -121 -55 -357
-131 -465 -149 l-35 -6 40 16 c22 9 114 46 205 82 171 67 392 172 423 199 9 9
17 20 17 25 0 5 -7 2 -16 -6 -21 -22 -54 -39 -62 -32 -3 3 0 6 6 6 6 0 24 12
41 26 26 22 32 23 37 10 3 -9 10 -14 15 -11 4 3 6 12 3 19 -3 7 3 19 13 27 16
13 17 12 4 -4 -8 -9 -11 -21 -7 -24 4 -4 11 -2 15 6 5 7 12 12 17 11 5 -1 10
4 12 12 2 9 0 8 -7 -2 -7 -10 -11 -11 -11 -3 0 7 9 17 20 23 14 7 20 7 20 0 0
-16 39 12 46 33 3 9 10 15 15 11 10 -6 82 45 152 108 23 20 44 35 46 32 2 -2
-21 -37 -52 -77z m-2909 35 c2 -14 -2 -22 -11 -22 -17 0 -30 27 -21 41 9 16
29 4 32 -19z m4537 -94 c-107 -190 -249 -397 -263 -384 -3 4 -19 -6 -36 -21
l-30 -28 23 30 c12 17 40 49 63 73 78 83 24 40 -73 -57 -89 -89 -118 -124 -89
-106 19 12 10 -2 -17 -26 -25 -22 -26 -22 -9 -1 28 33 6 27 -35 -11 -20 -17
-46 -39 -59 -47 -54 -36 -105 -80 -105 -91 0 -7 -11 -13 -24 -14 -13 -1 -30
-10 -37 -20 -8 -11 -14 -15 -14 -10 0 5 -11 -2 -25 -15 -14 -13 -24 -29 -21
-35 2 -7 0 -18 -6 -26 -8 -11 -9 -10 -4 4 4 12 0 17 -14 17 -11 0 -20 -3 -21
-7 -4 -44 -19 -82 -19 -50 0 17 -11 22 -23 10 -4 -3 1 -16 10 -27 10 -12 11
-15 3 -9 -11 10 -17 7 -31 -16 -21 -35 -49 -38 -43 -4 2 13 2 23 -1 23 -3 0
-37 -18 -76 -40 -89 -50 -207 -102 -281 -124 -32 -9 -65 -19 -75 -23 -10 -4 8
18 40 48 31 29 57 59 57 65 0 6 11 16 25 22 21 10 27 9 31 -3 4 -8 14 -15 23
-15 20 0 299 158 414 235 261 173 545 446 722 693 32 45 60 80 62 78 3 -2 -17
-42 -42 -88z m-4267 40 c-4 -27 -33 -36 -42 -13 -8 22 1 35 25 35 15 0 20 -6
17 -22z m-420 -16 c4 -30 -26 -42 -44 -17 -10 14 -11 22 -2 32 16 20 42 12 46
-15z m1917 -10 c-3 -3 -11 0 -18 7 -9 10 -8 11 6 5 10 -3 15 -9 12 -12z
m-1089 -69 c-10 -10 -19 5 -10 18 6 11 8 11 12 0 2 -7 1 -15 -2 -18z m-616
-56 c0 -31 -9 -38 -31 -26 -29 15 -25 49 6 49 20 0 25 -5 25 -23z m-840 9 c0
-3 -4 -8 -10 -11 -5 -3 -10 -1 -10 4 0 6 5 11 10 11 6 0 10 -2 10 -4z m3788
-41 c-3 -3 -9 2 -12 12 -6 14 -5 15 5 6 7 -7 10 -15 7 -18z m-43 -4 c3 -5 1
-12 -5 -16 -5 -3 -10 1 -10 9 0 18 6 21 15 7z m925 -17 c0 -17 -26 -19 -36 -3
-7 12 15 31 28 23 4 -3 8 -12 8 -20z m-950 -4 c0 -5 -4 -10 -10 -10 -5 0 -10
5 -10 10 0 6 5 10 10 10 6 0 10 -4 10 -10z m-30 -10 c0 -5 -5 -10 -11 -10 -5
0 -7 5 -4 10 3 6 8 10 11 10 2 0 4 -4 4 -10z m-1928 -50 c-2 -16 -8 -27 -13
-24 -5 3 -9 -2 -9 -11 0 -11 -5 -15 -14 -12 -10 4 -13 -1 -11 -19 2 -19 0 -22
-11 -13 -10 8 -14 8 -14 0 0 -6 -3 -10 -7 -10 -22 4 -35 -2 -30 -14 3 -9 -2
-13 -16 -12 -27 2 -48 -5 -42 -14 2 -4 -10 -7 -27 -6 -28 2 -29 1 -13 -12 11
-7 14 -13 8 -13 -7 0 -18 -7 -26 -15 -13 -12 -14 -10 -12 15 2 24 19 40 121
109 65 44 119 80 120 81 0 0 -1 -13 -4 -30z m-488 -12 c-4 -6 -2 -8 3 -5 6 4
16 1 22 -6 8 -11 4 -14 -24 -14 -19 0 -33 3 -31 6 2 3 6 14 9 24 4 10 11 15
17 12 6 -4 7 -11 4 -17z m68 -4 c-3 -15 -8 -22 -14 -16 -9 9 -1 42 12 42 4 0
5 -12 2 -26z m31 1 c-3 -9 -8 -14 -10 -11 -3 3 -2 9 2 15 9 16 15 13 8 -4z
m-678 -5 c3 -5 -1 -10 -10 -10 -9 0 -13 5 -10 10 3 6 8 10 10 10 2 0 7 -4 10
-10z m535 -20 c9 -16 8 -18 -5 -14 -8 4 -15 12 -15 20 0 20 7 17 20 -6z m82
-32 c-15 -15 -16 -42 -2 -33 6 3 10 1 10 -5 0 -7 -6 -10 -12 -8 -18 6 -22 49
-7 59 18 11 26 2 11 -13z m-72 -9 c0 -4 -7 -6 -15 -2 -13 5 -14 2 -4 -20 8
-17 17 -23 28 -19 14 5 14 4 -1 -11 -18 -18 -29 -22 -27 -9 4 24 -3 34 -21 29
-19 -5 -19 -4 -3 23 15 25 43 31 43 9z m1940 1 c0 -5 -5 -10 -11 -10 -5 0 -7
5 -4 10 3 6 8 10 11 10 2 0 4 -4 4 -10z m-1910 -4 c0 -2 -8 -10 -17 -17 -16
-13 -17 -12 -4 4 13 16 21 21 21 13z m3420 -26 c0 -25 -4 -30 -24 -30 -13 0
-26 7 -30 15 -9 25 4 45 30 45 20 0 24 -5 24 -30z m-2549 -5 c5 3 6 -1 3 -10
-5 -12 -10 -13 -20 -5 -7 7 -10 19 -6 28 6 16 7 16 10 -1 2 -9 8 -15 13 -12z
m-74 -36 c2 -16 -1 -19 -9 -11 -5 5 -7 15 -4 21 10 15 12 14 13 -10z m-3432
-23 c0 -36 -26 -56 -49 -37 -31 26 -11 75 29 69 15 -2 20 -11 20 -32z m2345
24 c0 -5 -2 -10 -4 -10 -3 0 -8 5 -11 10 -3 6 -1 10 4 10 6 0 11 -4 11 -10z
m158 -15 c-3 -3 -9 2 -12 12 -6 14 -5 15 5 6 7 -7 10 -15 7 -18z m382 15 c0
-13 -41 -39 -70 -44 -15 -2 -24 -9 -22 -17 3 -11 1 -11 -9 -2 -9 9 -16 7 -32
-8 -11 -10 -28 -19 -36 -19 -9 0 -40 -11 -70 -25 -30 -14 -56 -23 -58 -21 -3
2 5 7 16 11 12 3 21 11 21 16 0 5 6 9 13 9 6 0 62 25 122 54 119 59 125 61
125 46z m-306 -9 c3 -5 -3 -11 -13 -14 -14 -3 -18 -1 -14 9 6 16 19 18 27 5z
m3246 -22 c0 -20 -15 -26 -25 -9 -9 15 3 43 15 35 5 -3 10 -15 10 -26z m-3319
-15 c-12 -9 -19 -20 -16 -25 3 -5 -1 -6 -9 -3 -21 8 -1 39 27 41 19 2 19 2 -2
-13z m984 -4 c-3 -5 -1 -11 5 -15 5 -3 10 -2 10 3 0 6 7 12 14 15 10 4 13 1
10 -8 -7 -18 -28 -25 -44 -15 -19 11 -22 40 -4 33 8 -3 12 -9 9 -13z m-2061
-16 c21 -8 21 -50 0 -58 -32 -12 -57 27 -32 52 14 14 12 14 32 6z m4031 -24
c-3 -5 -12 -10 -18 -10 -7 0 -6 4 3 10 19 12 23 12 15 0z m-1990 -18 c-3 -3
-11 0 -18 7 -9 10 -8 11 6 5 10 -3 15 -9 12 -12z m3275 -2 c0 -11 -7 -20 -15
-20 -8 0 -15 9 -15 20 0 11 7 20 15 20 8 0 15 -9 15 -20z m-4241 -83 c-9 -7
-14 -18 -12 -24 3 -7 -2 -13 -10 -13 -8 0 -20 -6 -27 -14 -6 -8 -18 -12 -26
-9 -8 3 -14 -1 -14 -8 0 -7 -3 -9 -7 -6 -3 4 -12 2 -20 -4 -7 -6 -13 -8 -13
-4 0 4 -8 1 -17 -6 -15 -12 -16 -12 -10 5 4 10 2 25 -4 33 -7 7 -9 17 -5 20 4
4 11 1 16 -6 6 -11 9 -10 14 5 3 12 4 9 2 -7 l-3 -26 46 14 c25 7 50 18 56 24
7 7 1 7 -18 0 -35 -13 -37 -13 -37 -1 0 6 3 9 8 8 15 -4 82 24 82 34 0 6 3 8
7 4 5 -4 1 -13 -8 -19z m3022 9 c21 13 7 -15 -15 -30 l-25 -16 11 32 c6 18 13
27 16 20 2 -7 8 -10 13 -6z m-2987 -11 c-4 -8 -11 -15 -16 -15 -6 0 -5 6 2 15
7 8 14 15 16 15 2 0 1 -7 -2 -15z m986 -16 c0 -14 -17 -10 -23 5 -4 10 -1 13
9 9 7 -3 14 -9 14 -14z m-1124 -9 c0 -11 -4 -20 -8 -20 -10 0 -11 24 -1 33 9
9 9 10 9 -13z m2413 -3 c0 -8 -2 -8 -6 1 -4 10 -8 10 -21 0 -15 -12 -16 -11
-3 4 14 19 32 15 30 -5z m812 -4 c-138 -187 -217 -277 -233 -267 -6 4 -8 3 -5
-3 9 -14 -236 -244 -260 -243 -4 1 2 9 14 19 12 10 20 21 16 24 -8 8 -42 -35
-37 -48 2 -5 -15 -23 -38 -38 -33 -23 -43 -26 -50 -15 -8 10 -9 9 -5 -4 4 -10
-3 -22 -19 -32 -13 -9 -24 -14 -24 -11 0 4 -7 -1 -16 -10 -9 -9 -19 -14 -22
-11 -10 11 47 58 60 50 7 -4 10 -4 6 1 -11 12 11 35 27 29 8 -3 21 7 32 23 9
15 21 31 25 34 5 3 19 20 33 39 27 36 17 58 -16 37 -14 -9 -16 -14 -6 -26 8
-10 8 -13 1 -8 -7 4 -15 0 -18 -8 -5 -13 -10 -14 -27 -4 -19 10 -21 9 -15 -6
5 -15 4 -16 -9 -5 -11 9 -15 9 -15 1 0 -7 -12 -11 -27 -9 -24 3 -28 0 -26 -22
2 -21 1 -23 -8 -7 -11 19 -34 24 -23 5 5 -10 4 -10 -6 -1 -10 10 -17 10 -28 1
-7 -7 -21 -13 -30 -14 -10 -1 -28 -6 -41 -10 -17 -5 -22 -4 -17 5 4 6 11 9 16
6 4 -3 10 -1 12 3 4 9 93 72 103 72 4 0 25 13 48 28 23 16 50 31 60 35 9 4 17
12 17 19 0 10 -2 10 -9 -1 -5 -7 -14 -10 -20 -7 -6 4 -11 2 -11 -3 0 -6 -7
-11 -15 -11 -8 0 -15 -4 -15 -9 0 -5 -14 -7 -31 -6 -18 2 -68 -9 -113 -24 -45
-15 -107 -33 -139 -41 l-58 -13 34 -36 c87 -94 167 -212 234 -346 165 -329
204 -685 114 -1035 -10 -41 -18 -76 -17 -77 2 -3 216 91 271 119 121 62 378
250 458 336 l29 30 -26 49 c-20 40 -22 53 -13 64 7 8 8 11 3 7 -17 -13 -29 -9
-17 6 12 14 84 19 76 5 -3 -4 8 -6 24 -5 27 1 34 11 8 11 -13 0 -38 45 -31 57
8 12 34 -3 34 -21 0 -14 -2 -14 -11 -1 -9 13 -10 13 -6 0 2 -8 11 -13 18 -12
41 11 58 11 64 2 4 -6 1 -9 -6 -8 -14 4 -24 -48 -10 -56 5 -4 7 4 3 16 -5 20
-3 21 10 10 14 -11 19 -9 32 10 9 12 16 18 16 13 0 -5 11 3 25 18 14 15 29 27
33 27 4 0 43 33 87 74 80 74 115 94 58 33 -16 -17 -58 -68 -93 -112 -35 -44
-94 -111 -130 -149 -36 -37 -64 -72 -62 -78 1 -5 -1 -7 -5 -5 -8 5 -110 -67
-201 -141 -20 -17 -86 -69 -147 -115 -60 -47 -109 -89 -108 -95 1 -5 -5 -9
-14 -8 -9 0 -18 -5 -20 -12 -3 -7 -1 -12 4 -10 4 1 18 -1 29 -5 15 -5 34 -1
58 14 20 11 36 22 36 24 0 5 -56 -12 -72 -21 -7 -4 -4 2 7 13 11 11 23 19 28
16 4 -2 7 0 7 5 0 15 46 32 58 20 10 -10 65 12 77 32 3 5 -10 0 -30 -11 -23
-14 -40 -18 -46 -12 -6 6 13 26 53 56 35 26 87 69 117 96 29 27 91 75 137 106
46 31 90 63 98 70 8 8 22 15 30 15 9 0 16 6 16 14 0 8 8 13 18 12 11 0 16 6
16 17 -2 14 1 15 12 6 10 -8 14 -8 14 0 0 6 4 10 8 8 5 -1 21 8 38 20 16 13
53 40 82 62 30 21 93 75 142 120 49 45 91 81 95 81 14 0 -120 -153 -202 -230
-78 -72 -199 -166 -311 -239 -21 -13 -61 -41 -90 -63 -30 -22 -61 -41 -70 -42
-10 -2 -17 -8 -17 -14 0 -6 -3 -14 -7 -18 -5 -4 -8 -2 -8 5 0 9 -4 9 -14 -1
-8 -7 -12 -16 -10 -20 3 -4 -17 -21 -43 -39 -27 -18 -97 -69 -158 -114 -152
-112 -248 -177 -405 -276 l-135 -84 -565 -5 -565 -5 -120 -42 -120 -42 40 32
c22 18 78 66 125 107 47 42 120 106 162 143 l78 67 412 1 c449 1 523 5 544 33
22 30 63 224 75 353 34 375 -96 759 -357 1058 -53 60 -81 84 -92 81 -159 -48
-390 -101 -399 -93 -2 3 81 33 185 68 136 45 186 66 178 74 -38 36 -199 148
-275 191 -50 28 -87 55 -83 59 4 5 2 5 -5 2 -6 -4 -19 -4 -29 0 -16 6 -15 7 2
21 18 14 17 14 -7 8 -24 -5 -25 -3 -21 26 3 21 1 29 -7 24 -6 -4 -8 -12 -5
-18 4 -7 2 -8 -5 -4 -8 6 -9 12 -2 20 6 7 8 16 4 20 -15 15 81 -25 160 -67
109 -58 220 -133 309 -209 l71 -61 142 47 c127 43 253 94 200 81 -27 -6 -61
45 -43 63 16 16 -4 15 -21 0 -11 -11 -11 -9 -2 9 14 28 14 36 -1 28 -7 -4 -5
0 4 7 11 10 14 19 7 29 -7 11 -9 10 -9 -5 0 -15 -3 -16 -14 -7 -9 7 -17 8 -20
2 -3 -5 0 -12 6 -14 9 -4 10 -6 1 -6 -22 -2 -24 18 -6 46 16 24 16 26 2 21
-12 -5 -21 4 -34 32 -10 22 -22 38 -28 37 -6 -1 -17 11 -25 26 -11 23 -12 31
-2 40 10 9 12 8 7 -5 -4 -10 -2 -18 4 -18 6 0 8 -4 4 -9 -3 -5 -2 -12 3 -15 5
-3 9 1 10 9 1 8 3 22 4 30 1 8 3 15 4 15 2 0 22 -32 44 -71 36 -60 40 -72 28
-87 -11 -15 -11 -16 3 -4 15 11 22 3 59 -65 23 -43 43 -79 45 -81 5 -5 160 69
167 81 4 7 12 13 18 13 5 1 12 2 15 3 3 0 1 10 -5 22 -9 16 -8 24 4 38 9 10
13 21 9 24 -3 4 -1 7 6 7 6 0 11 -7 9 -16 -2 -10 5 -18 15 -19 9 -2 17 1 17 6
0 5 -4 9 -10 9 -5 0 -10 5 -10 11 0 6 6 9 13 6 8 -3 20 -1 27 3 11 7 11 11 1
23 -8 11 -9 17 -1 22 6 4 9 1 8 -7 -2 -7 3 -12 10 -10 8 1 12 -5 10 -15 -1
-10 2 -25 7 -33 8 -13 6 -13 -8 -2 -19 16 -41 6 -33 -14 3 -8 1 -14 -4 -14 -6
0 -10 -5 -10 -10 0 -6 18 -1 40 10 23 12 38 25 35 30 -4 6 7 10 24 10 25 0 29
3 24 18 -6 14 -4 15 9 4 14 -11 19 -9 32 10 9 12 16 17 16 11 0 -15 93 38 158
89 57 44 58 45 33 11z m-3586 7 c-3 -5 -12 -10 -18 -10 -7 0 -6 4 3 10 19 12
23 12 15 0z m-55 -12 c0 -4 -9 -8 -20 -8 -11 0 -20 4 -20 8 0 4 9 8 20 8 11 0
20 -4 20 -8z m1433 -2 c4 -10 1 -13 -8 -9 -8 3 -12 9 -9 14 7 12 11 11 17 -5z
m-1085 -8 c15 -15 16 -31 0 -22 -7 5 -9 2 -6 -8 4 -8 0 -15 -8 -15 -7 0 -11 5
-8 11 3 6 -2 2 -10 -8 -9 -11 -16 -16 -16 -10 0 5 -4 4 -8 -2 -4 -6 -18 -15
-31 -19 -18 -5 -22 -4 -16 6 4 8 -4 1 -19 -16 -28 -34 -35 -23 -9 15 l17 24
-26 -20 c-14 -10 -23 -23 -20 -29 3 -5 -3 -3 -13 5 -17 13 -18 13 -13 -1 4
-10 1 -16 -8 -16 -8 0 -14 4 -14 9 0 5 -5 6 -12 2 -7 -4 -8 -3 -4 5 4 6 12 9
17 6 5 -4 9 -1 9 5 0 8 -9 10 -25 6 -20 -5 -25 -3 -25 13 0 10 9 21 20 24 11
3 20 0 20 -5 0 -6 6 -5 15 2 12 10 19 10 27 2 16 -16 33 -15 20 1 -9 10 1 15
44 25 30 7 59 10 64 7 6 -3 10 -1 10 4 0 14 13 14 28 -1z m-468 -14 c0 -2 -11
-3 -24 -2 -14 1 -23 5 -20 9 4 7 44 0 44 -7z m1615 -24 c-3 -5 -12 -10 -18
-10 -7 0 -6 4 3 10 19 12 23 12 15 0z m1673 -2 c-3 -7 8 -24 23 -39 l27 -27
-26 -32 c-33 -39 -53 -34 -78 22 l-18 41 29 23 c33 26 49 31 43 12z m-2568 -7
c0 -14 -29 -21 -36 -9 -4 7 -3 8 4 4 7 -4 12 -2 12 3 0 6 5 11 10 11 6 0 10
-4 10 -9z m835 -1 c-3 -5 -12 -10 -18 -10 -7 0 -6 4 3 10 19 12 23 12 15 0z
m1895 2 c0 -5 -7 -9 -15 -9 -8 0 -12 4 -9 9 3 4 9 8 15 8 5 0 9 -4 9 -8z m90
-2 c0 -5 -5 -10 -11 -10 -5 0 -7 5 -4 10 3 6 8 10 11 10 2 0 4 -4 4 -10z
m-3367 -53 c7 -5 -6 -6 -31 -4 -45 5 -60 12 -48 24 4 4 12 1 17 -7 8 -11 9 -9
5 10 -6 25 -6 25 5 3 7 -13 16 -23 22 -23 5 0 4 7 -3 15 -6 8 -8 20 -4 26 5 9
10 5 16 -12 5 -13 14 -27 21 -32z m23 45 c6 -4 13 -15 17 -24 4 -13 1 -16 -14
-13 -28 6 -39 14 -39 31 0 15 18 18 36 6z m469 -2 c-3 -5 -13 -10 -21 -10 -8
0 -12 -4 -9 -10 3 -5 0 -7 -8 -4 -8 3 -17 -2 -20 -10 -4 -9 -11 -16 -17 -16
-6 0 -9 4 -5 9 3 5 1 13 -5 16 -6 4 -9 1 -8 -6 2 -7 -6 -14 -17 -16 -16 -3
-17 -2 -5 6 13 9 13 11 -2 11 -10 0 -18 -7 -18 -15 0 -8 -6 -12 -15 -9 -12 5
-11 9 4 25 11 12 25 17 34 13 11 -4 17 -1 17 7 0 11 3 11 10 -1 9 -13 11 -13
20 0 5 8 10 12 10 8 0 -4 10 -3 23 2 30 12 39 12 32 0z m605 -5 c-16 -9 -20
-14 -9 -15 9 0 16 -7 16 -15 0 -8 -4 -12 -9 -9 -4 3 -8 1 -8 -5 0 -5 5 -11 11
-13 6 -2 -29 -19 -77 -37 -483 -181 -837 -595 -946 -1104 -27 -130 -30 -366
-5 -503 36 -197 138 -436 250 -584 271 -357 661 -548 1149 -562 47 -2 84 -6
82 -10 -3 -4 -27 -5 -55 -3 -48 4 -50 3 -38 -13 12 -15 12 -16 -1 -6 -12 9
-88 12 -110 4 -28 -10 -257 36 -378 76 -198 66 -377 178 -537 339 -145 144
-258 315 -304 458 -10 31 -16 36 -27 26 -10 -8 -17 -7 -29 5 -9 9 -21 16 -27
16 -5 0 -8 7 -4 15 3 8 2 15 -2 15 -11 0 -50 157 -63 250 -15 113 -9 339 12
463 24 139 66 262 140 412 75 153 169 284 289 406 147 149 274 239 450 322
125 59 305 115 230 72z m2250 -9 c0 -10 -30 0 -34 11 -4 11 -1 11 14 3 11 -6
20 -12 20 -14z m-145 -5 c-8 -14 -25 -14 -25 0 0 5 5 7 10 4 6 -3 10 -1 10 6
0 7 3 10 6 6 3 -3 3 -10 -1 -16z m235 15 c0 -2 -7 -7 -16 -10 -8 -3 -12 -2 -9
4 6 10 25 14 25 6z m-3553 -13 c-4 -3 1 -12 11 -20 16 -12 15 -13 -3 -6 -11 4
-26 13 -33 20 -11 11 -10 13 9 13 12 0 19 -3 16 -7z m358 -21 c-3 -10 0 -12
10 -8 13 4 14 2 5 -14 -6 -11 -13 -20 -16 -20 -3 0 -2 5 1 10 3 6 0 10 -7 10
-7 0 -37 -43 -67 -96 -43 -77 -51 -98 -40 -106 11 -8 10 -9 -2 -5 -12 4 -23
-7 -40 -41 -13 -26 -28 -50 -33 -53 -5 -4 -6 -14 -3 -22 4 -12 2 -14 -10 -10
-11 4 -14 2 -9 -5 4 -7 2 -12 -4 -12 -6 0 -8 -5 -5 -10 3 -6 0 -13 -8 -16 -9
-3 -21 -20 -28 -37 -7 -18 -21 -44 -30 -58 -10 -14 -16 -29 -12 -33 3 -3 1 -6
-6 -6 -7 0 -10 -4 -7 -9 3 -5 -1 -12 -10 -15 -13 -5 -14 -9 -4 -21 10 -12 10
-15 -3 -15 -16 0 -97 -124 -97 -148 0 -7 -3 -12 -7 -12 -14 0 -65 -109 -57
-122 4 -7 4 -10 -1 -6 -4 4 -14 3 -22 -3 -10 -9 -11 -15 -2 -26 9 -11 9 -12
-4 -7 -12 4 -18 -2 -23 -20 -3 -14 -11 -26 -16 -26 -5 0 -8 -6 -5 -12 2 -7 -3
-19 -12 -25 -14 -11 -14 -14 -1 -23 12 -8 11 -10 -6 -10 -22 0 -44 -36 -44
-70 0 -11 -6 -20 -14 -20 -20 0 -29 -17 -15 -26 8 -5 9 -3 4 7 -5 8 -5 11 -1
7 10 -8 8 -23 -2 -23 -15 0 -43 -35 -37 -45 3 -5 1 -10 -5 -10 -7 0 -10 -7 -7
-14 4 -11 1 -13 -10 -9 -12 5 -14 1 -9 -15 6 -17 3 -20 -12 -17 -16 3 -19 -2
-16 -26 2 -17 0 -27 -5 -24 -5 3 -12 -4 -16 -15 -3 -11 -11 -20 -16 -20 -6 0
-8 -4 -5 -9 3 -5 -1 -12 -10 -15 -9 -4 -14 -13 -10 -21 3 -9 0 -15 -10 -15
-12 0 -13 -4 -4 -20 8 -15 8 -20 0 -18 -6 2 -23 -17 -37 -42 -84 -147 -133
-238 -133 -248 0 -7 -3 -12 -7 -12 -8 0 -63 -92 -63 -105 0 -3 5 -3 10 0 6 3
10 1 10 -4 0 -6 -7 -11 -15 -11 -14 0 -41 -38 -37 -52 1 -5 -2 -8 -7 -8 -8 0
-45 -80 -41 -89 1 -2 -6 -8 -15 -13 -14 -8 -25 -28 -36 -63 -1 -5 -9 -16 -16
-23 -7 -7 -13 -19 -13 -27 0 -7 -7 -16 -16 -19 -9 -4 -14 -9 -10 -13 3 -3 -1
-15 -11 -25 -9 -10 -13 -18 -10 -18 4 0 -4 -16 -18 -36 -13 -20 -21 -42 -18
-51 4 -11 2 -14 -5 -9 -8 4 -16 -3 -23 -21 -6 -15 -9 -29 -7 -30 2 -1 -8 -13
-21 -27 -14 -14 -19 -26 -12 -26 9 0 9 -3 -1 -14 -7 -8 -16 -12 -19 -10 -4 2
-10 -3 -13 -12 -3 -8 -2 -12 3 -9 5 3 13 1 16 -5 4 -6 3 -10 -2 -9 -28 5 -34
-3 -30 -36 3 -19 1 -37 -4 -40 -4 -3 -6 4 -4 15 2 11 0 20 -6 20 -5 0 -9 -12
-9 -26 0 -19 -4 -25 -15 -20 -19 7 -19 -8 0 -24 12 -10 15 -10 15 0 0 8 3 11
6 7 14 -14 -8 -27 -28 -16 -15 8 -19 8 -14 0 4 -6 2 -11 -5 -11 -8 0 -8 -4 -1
-13 6 -7 9 -22 7 -32 -2 -11 -4 -22 -4 -25 -1 -3 -6 2 -11 10 -8 13 -11 13
-26 -2 -17 -16 -16 -18 7 -26 16 -6 26 -6 31 2 5 6 8 2 8 -11 0 -24 -14 -31
-25 -13 -10 16 -21 12 -35 -15 -8 -14 -19 -24 -24 -22 -11 4 -15 -19 -16 -75
0 -16 -5 -28 -11 -28 -6 0 -1 -9 12 -20 14 -11 18 -19 11 -20 -7 0 -10 -4 -7
-10 7 -12 26 -14 24 -2 -1 4 -1 14 0 22 1 13 2 13 11 0 6 -10 4 -20 -7 -32 -8
-9 -13 -25 -9 -34 5 -14 9 -14 23 -3 15 12 16 12 10 -3 -3 -10 -2 -18 3 -18 6
0 10 -5 10 -11 0 -8 -4 -8 -13 -1 -18 15 -39 1 -27 -18 7 -11 10 -12 10 -2 0
7 4 11 10 7 5 -3 6 -13 3 -22 -6 -14 -3 -14 19 2 21 16 23 22 11 33 -7 7 -13
17 -13 21 0 11 39 11 46 -1 5 -8 1 -9 -10 -5 -12 5 -16 3 -14 -5 3 -7 12 -12
21 -12 10 1 24 2 32 3 8 0 12 7 9 16 -4 9 0 15 9 15 15 0 17 -23 3 -37 -4 -4
-18 -7 -32 -8 -15 0 -33 -10 -44 -25 -16 -22 -21 -23 -45 -12 -24 11 -27 11
-22 -3 9 -21 2 -19 -30 11 -24 23 -25 26 -7 20 17 -5 23 -2 27 16 8 30 -4 41
-34 29 l-24 -10 23 0 c13 -1 21 -5 17 -11 -3 -5 -12 -7 -19 -4 -24 9 -28 -14
-6 -36 27 -27 26 -30 -12 -29 -28 0 -30 2 -13 9 15 6 16 9 4 9 -9 1 -19 -2
-23 -6 -11 -11 -46 -14 -46 -3 0 6 7 10 15 10 8 0 15 7 15 16 0 10 6 14 15 10
22 -8 18 12 -5 24 -11 6 -18 15 -15 20 3 5 0 12 -6 16 -8 4 -9 -3 -4 -26 6
-26 4 -31 -6 -24 -12 6 -12 5 -1 -8 11 -14 10 -17 -8 -23 -11 -3 -18 -10 -15
-15 3 -4 -15 -10 -39 -11 l-44 -4 23 40 c13 22 50 87 82 145 33 58 128 226
212 374 84 149 155 276 158 283 4 11 0 11 -22 3 -14 -5 -32 -10 -38 -9 -7 0 4
6 23 13 19 8 38 12 42 10 8 -5 58 78 138 231 35 66 66 125 70 130 4 6 28 46
52 90 l44 80 -50 -2 c-60 -4 -126 -12 -143 -18 -6 -2 -14 -1 -17 3 -11 10 -40
11 -51 2 -6 -5 -44 -12 -85 -15 -116 -10 -140 -13 -205 -24 -82 -13 -191 -24
-185 -18 15 14 355 94 440 103 25 3 52 8 60 11 8 3 40 7 70 10 30 3 57 10 58
14 2 5 8 7 13 3 5 -3 9 2 9 11 0 9 -7 15 -16 13 -10 -2 -18 3 -20 10 -1 7 0 8
3 2 8 -17 43 8 36 27 -4 11 -3 14 6 9 7 -4 20 2 31 16 19 23 25 17 20 -22 -1
-10 3 -9 14 5 8 11 10 22 5 23 -12 5 -12 32 1 32 19 0 21 -27 6 -65 -11 -24
-20 -34 -28 -29 -7 4 -10 4 -6 -1 4 -4 3 -13 -2 -20 -7 -9 1 -10 36 -5 25 4
50 13 55 21 5 8 28 47 50 86 22 40 44 75 50 78 5 4 14 15 20 27 10 19 9 20
-30 13 -28 -5 -41 -3 -41 5 0 6 -5 8 -10 5 -6 -3 -13 1 -16 10 -6 14 -8 14
-21 -2 -13 -17 -14 -17 -8 4 3 12 1 25 -6 29 -9 5 -10 2 -6 -9 3 -10 2 -17 -4
-17 -6 0 -7 -5 -3 -12 4 -7 3 -8 -4 -4 -7 4 -12 2 -12 -3 0 -14 33 -14 47 0 7
7 12 6 16 -5 5 -12 0 -16 -21 -17 -15 0 -35 -2 -44 -4 -9 -2 -19 4 -23 13 -5
13 -8 12 -21 -4 -12 -14 -14 -15 -11 -3 3 9 1 22 -5 30 -8 11 -9 10 -4 -3 3
-10 1 -18 -4 -18 -15 0 -12 23 5 46 13 16 16 17 25 4 5 -8 10 -12 10 -7 0 4 0
10 1 15 0 4 11 13 25 20 25 13 25 14 7 29 -16 14 -16 14 7 1 31 -18 50 -13 51
15 1 17 2 18 6 4 2 -9 9 -15 14 -11 5 3 7 10 3 15 -7 12 19 7 28 -6 4 -5 10
-2 13 7 4 9 13 14 21 11 10 -4 12 0 8 11 -6 16 -28 17 -54 2 -12 -7 -13 -6 -3
4 9 10 10 17 2 27 -8 9 -8 13 -1 13 6 0 9 6 6 13 -3 8 2 20 10 27 13 10 20 9
41 -4 14 -9 25 -12 25 -7 0 6 -8 14 -17 20 -17 9 -17 10 0 16 9 4 17 13 17 19
0 7 7 13 15 13 19 0 19 -6 -2 -29 -13 -14 -14 -21 -5 -30 9 -9 15 -9 25 1 10
11 10 13 0 7 -7 -4 -13 -2 -13 3 0 20 20 11 30 -11 8 -22 15 -11 11 20 -1 6 4
12 10 12 8 0 6 7 -4 18 -16 17 -25 53 -10 39 9 -9 34 13 27 24 -10 16 9 9 22
-8 12 -16 15 -16 24 -3 5 8 9 20 9 25 0 6 -3 5 -5 -2 -3 -7 -12 -9 -20 -6 -7
3 -12 9 -9 13 3 4 -3 7 -12 6 -11 -1 -16 8 -17 27 -1 16 3 26 9 23 6 -2 12 5
13 15 1 11 2 26 3 34 2 8 11 13 23 12 13 -1 20 3 18 11 -1 8 2 11 8 7 5 -3 10
1 10 9 0 19 -11 21 -27 5 -8 -8 -13 -7 -18 2 -5 7 -4 10 2 6 5 -3 17 3 26 14
20 22 22 33 5 23 -7 -5 -8 -3 -3 6 6 10 4 12 -10 6 -16 -6 -16 -4 -4 10 7 9
15 12 17 6 2 -6 10 -8 18 -5 7 3 11 9 8 14 -3 5 0 9 5 9 14 0 14 -1 -3 -41
-14 -35 -7 -79 14 -79 6 0 8 -5 5 -10 -5 -8 -12 -7 -23 2 -9 8 -13 8 -9 2 6
-10 -19 -29 -32 -24 -2 1 -8 -6 -14 -15 -14 -26 1 -30 22 -6 11 13 26 23 33
25 22 3 38 16 38 31 0 9 -6 12 -15 9 -17 -7 -19 4 -5 26 6 9 10 11 10 3 0 -7
7 -10 15 -7 8 4 15 10 15 16 0 5 -3 7 -8 4 -4 -2 -15 2 -25 9 -20 14 -6 31 18
21 8 -3 12 0 10 7 -3 7 -1 19 5 27 8 13 11 12 23 -4 13 -18 14 -17 12 12 -2
34 -22 65 -36 56 -5 -3 -7 -17 -4 -32 5 -27 5 -27 -5 -3 -6 13 -13 21 -16 18
-3 -3 0 -15 6 -27 15 -28 6 -37 -16 -16 -12 12 -20 14 -27 7 -6 -6 -18 -11
-26 -11 -9 1 -2 8 14 17 41 21 42 23 25 33 -11 7 -8 10 13 10 15 0 27 6 27 13
0 15 58 82 65 75 3 -3 -7 -19 -22 -35 l-28 -30 32 -30 c21 -19 34 -25 37 -17
3 7 -5 20 -17 29 -12 8 -15 14 -7 12 27 -7 40 16 22 37 -10 11 -12 17 -6 13
14 -8 38 37 30 58 -3 9 -2 13 4 10 6 -3 10 3 10 14 0 26 -16 27 -29 3 -7 -13
-6 -23 1 -30 7 -7 8 -15 4 -19 -4 -4 -11 -1 -17 7 -8 13 -13 11 -31 -10 -15
-18 -19 -20 -15 -6 6 14 3 17 -8 12 -10 -3 -13 -2 -10 5 4 6 13 8 20 5 8 -3
19 2 26 10 10 13 10 17 -2 26 -12 8 -11 9 2 5 21 -7 76 43 59 53 -9 5 -9 9 -1
14 6 4 11 3 11 -2 0 -14 79 10 85 26 4 12 3 13 -9 3 -8 -7 -19 -10 -25 -7 -5
3 -12 0 -14 -6 -3 -8 -6 -5 -6 6 -1 12 4 16 14 12 10 -3 15 1 15 12 0 10 14
28 31 41 29 21 29 24 12 36 -18 14 -33 11 -33 -6 0 -5 8 -9 18 -9 14 0 15 -2
2 -10 -9 -6 -17 -5 -21 2 -4 7 -9 7 -13 0 -3 -6 -15 -8 -26 -5 -11 3 -17 9
-14 15 3 5 12 4 20 -3 12 -10 13 -9 8 5 -4 11 -1 16 10 16 9 0 13 6 10 14 -3
8 0 17 5 21 6 3 8 11 5 17 -4 6 -1 9 6 6 15 -5 42 19 61 54 7 13 14 18 16 11
5 -15 -47 -83 -64 -83 -7 0 -10 -7 -7 -15 4 -8 10 -12 15 -9 6 3 16 0 24 -6
11 -9 15 -9 15 -1 0 6 -4 11 -10 11 -5 0 -10 5 -10 11 0 6 7 8 16 5 12 -4 14
-1 9 14 -4 11 -2 20 4 20 6 0 11 7 11 15 0 8 8 15 17 15 13 0 14 -3 5 -12 -16
-16 -15 -33 1 -19 8 6 16 8 19 5 3 -2 9 3 12 13 4 9 4 14 0 10 -9 -8 -44 21
-44 37 0 6 4 5 9 -2 4 -7 20 -15 34 -16 15 -2 24 0 22 5 -3 4 1 10 7 12 8 4 7
6 -3 6 -9 1 -20 8 -23 17 -9 24 3 32 15 11 12 -21 25 -22 33 -2 4 11 0 15 -11
13 -10 -2 -19 4 -21 14 -2 12 2 15 16 11 10 -2 26 3 36 12 9 9 16 12 16 6 0
-5 -6 -14 -12 -18 -7 -4 -14 -15 -14 -23 -1 -8 -5 -24 -9 -35 l-7 -20 14 20
c8 11 39 60 68 109 29 49 61 97 71 107 21 21 62 22 54 1z m82 7 c-9 -6 -15
-14 -12 -19 3 -5 1 -12 -5 -15 -6 -4 -9 -1 -8 7 2 7 -3 12 -9 11 -16 -4 -17
14 -2 19 7 2 21 5 33 5 19 2 19 1 3 -8z m2974 -16 c13 -16 12 -17 -3 -4 -10 7
-18 15 -18 17 0 8 8 3 21 -13z m-3196 -13 c11 -5 14 -9 6 -9 -7 -1 -11 -7 -7
-16 3 -8 -1 -20 -8 -27 -7 -7 -11 -19 -8 -27 3 -8 0 -11 -7 -7 -6 4 -14 0 -17
-9 -5 -12 -9 -13 -20 -4 -12 10 -13 9 -8 -6 6 -15 5 -16 -15 -4 -22 15 -27 34
-11 44 6 3 7 -1 4 -9 -6 -17 4 -21 21 -8 10 7 14 19 19 51 2 8 8 17 16 19 10
4 9 6 -1 13 -12 7 -11 9 1 8 8 0 24 -4 35 -9z m-74 -14 c5 3 9 0 9 -5 0 -6 -9
-11 -20 -11 -20 0 -26 11 -13 24 4 4 9 2 11 -3 2 -6 8 -9 13 -5z m3899 4 c-20
-13 -33 -13 -25 0 3 6 14 10 23 10 15 0 15 -2 2 -10z m-4044 -19 c0 -15 -3
-17 -13 -9 -7 6 -10 14 -7 19 9 15 20 10 20 -10z m449 0 c-8 -14 -25 -14 -25
0 0 5 5 7 10 4 6 -3 10 -1 10 6 0 7 3 10 6 6 3 -3 3 -10 -1 -16z m2920 -1 c3
-5 1 -10 -4 -10 -6 0 -11 5 -11 10 0 6 2 10 4 10 3 0 8 -4 11 -10z m-3420 -10
c-3 -5 -11 -10 -16 -10 -6 0 -7 5 -4 10 3 6 11 10 16 10 6 0 7 -4 4 -10z m129
-16 c3 -8 2 -12 -4 -9 -6 3 -10 10 -10 16 0 14 7 11 14 -7z m46 12 c0 -2 -7
-6 -15 -10 -8 -3 -15 -1 -15 4 0 6 7 10 15 10 8 0 15 -2 15 -4z m248 -20 c-6
-14 -17 -27 -24 -30 -9 -3 -5 7 8 24 26 36 31 38 16 6z m3241 1 c0 -9 -2 -8
-6 1 -2 6 -10 9 -15 6 -7 -4 -8 -2 -4 5 9 13 26 5 25 -12z m-3567 -19 c-7 -7
-12 -8 -12 -2 0 14 12 26 19 19 2 -3 -1 -11 -7 -17z m283 2 c-3 -5 -12 -10
-18 -10 -7 0 -6 4 3 10 19 12 23 12 15 0z m75 -15 c0 -1 -6 -7 -13 -13 -10 -8
-13 -6 -13 7 0 11 6 17 13 14 7 -3 13 -6 13 -8z m-459 -18 c-6 -8 -7 -18 -3
-22 4 -5 1 -5 -6 -1 -10 6 -10 11 -1 22 6 8 14 14 16 14 3 0 0 -6 -6 -13z m89
3 c0 -5 -5 -10 -11 -10 -5 0 -7 5 -4 10 3 6 8 10 11 10 2 0 4 -4 4 -10z m30 6
c0 -3 -4 -8 -10 -11 -5 -3 -10 -1 -10 4 0 6 5 11 10 11 6 0 10 -2 10 -4z m50
-16 c0 -5 -5 -10 -11 -10 -5 0 -7 5 -4 10 3 6 8 10 11 10 2 0 4 -4 4 -10z
m3554 -6 c3 -8 2 -12 -4 -9 -6 3 -10 10 -10 16 0 14 7 11 14 -7z m-3336 -8
c-7 -8 -15 -12 -17 -11 -5 6 10 25 20 25 5 0 4 -6 -3 -14z m-269 -19 c-1 -17
-2 -18 -6 -4 -2 9 -8 15 -13 12 -5 -3 -11 -2 -14 3 -2 4 4 9 15 9 14 1 19 -4
18 -20z m3560 -6 c-6 -2 -18 4 -27 13 -15 15 -15 15 10 4 15 -7 23 -15 17 -17z
m-3521 12 c-14 -3 -16 -9 -8 -22 5 -10 6 -21 3 -25 -3 -3 -1 -6 6 -6 7 0 9 -5
6 -10 -9 -14 -28 -1 -21 15 2 7 0 17 -6 23 -14 14 -1 32 20 31 15 -1 15 -2 0
-6z m3728 -21 c-17 -16 -18 -16 -5 5 7 12 15 20 18 17 3 -2 -3 -12 -13 -22z
m-3836 8 c0 -5 -5 -10 -11 -10 -5 0 -7 5 -4 10 3 6 8 10 11 10 2 0 4 -4 4 -10z
m3808 -60 c-16 -13 -27 -15 -35 -8 -7 6 -13 6 -13 1 0 -5 6 -15 13 -22 6 -7 8
-11 2 -10 -16 5 -56 -12 -50 -20 2 -5 -7 -13 -21 -19 -20 -10 -26 -9 -30 3 -6
16 -24 11 -24 -6 0 -6 5 -7 11 -3 7 4 10 1 7 -7 -3 -8 -11 -13 -17 -11 -6 1
-11 -3 -11 -10 0 -6 -3 -8 -7 -5 -3 4 -12 2 -20 -4 -8 -7 -13 -8 -13 -1 0 5
10 17 23 26 18 13 15 13 -15 -2 -21 -9 -36 -22 -33 -29 2 -7 -2 -10 -11 -6 -8
3 -29 -6 -47 -19 -92 -69 -371 -204 -492 -239 -28 -8 -28 -7 -11 6 11 8 128
69 260 136 133 67 246 125 251 129 6 4 40 23 77 44 67 36 95 45 83 26 -3 -6 1
-7 9 -4 9 3 15 9 14 12 -1 4 4 18 10 32 9 20 11 21 11 6 1 -18 2 -18 19 -3 12
11 22 13 28 7 6 -6 14 -2 22 10 10 17 10 21 -3 26 -8 3 -12 10 -10 15 3 4 15
-1 26 -12 l20 -20 -23 -19z m-3758 40 c0 -5 -2 -10 -4 -10 -3 0 -8 5 -11 10
-3 6 -1 10 4 10 6 0 11 -4 11 -10z m3801 -13 c-10 -9 -11 -8 -5 6 3 10 9 15
12 12 3 -3 0 -11 -7 -18z m-3871 -1 c0 -3 -4 -8 -10 -11 -5 -3 -10 -1 -10 4 0
6 5 11 10 11 6 0 10 -2 10 -4z m3807 -2 c-3 -3 -12 -4 -19 -1 -8 3 -5 6 6 6
11 1 17 -2 13 -5z m-4579 -33 c4 -26 -13 -42 -35 -34 -14 5 -18 45 -6 57 14
14 38 0 41 -23z m5770 -4 c4 -20 -25 -34 -40 -19 -15 15 -1 44 19 40 10 -2 19
-11 21 -21z m-4998 -17 c0 -5 -2 -10 -4 -10 -3 0 -8 5 -11 10 -3 6 -1 10 4 10
6 0 11 -4 11 -10z m333 -5 c-3 -9 -8 -14 -10 -11 -3 3 -2 9 2 15 9 16 15 13 8
-4z m-360 -40 c-8 -22 -22 -18 -16 5 3 11 9 17 14 15 4 -3 6 -12 2 -20z m277
19 c0 -8 -19 -13 -24 -6 -3 5 1 9 9 9 8 0 15 -2 15 -3z m737 -24 c-26 -17 -71
-41 -100 -55 l-52 -26 30 25 c37 31 135 85 154 86 8 0 -6 -14 -32 -30z m-1334
4 c8 -8 -3 -34 -14 -34 -5 0 -9 9 -9 20 0 19 11 26 23 14z m3587 -10 c0 -8 -5
-12 -10 -9 -6 4 -8 11 -5 16 9 14 15 11 15 -7z m-3356 -3 c3 -5 -1 -11 -9 -14
-9 -4 -12 -1 -8 9 6 16 10 17 17 5z m51 0 c3 -5 1 -12 -5 -16 -5 -3 -10 1 -10
9 0 18 6 21 15 7z m-1095 -22 c0 -14 -5 -19 -17 -17 -26 5 -29 38 -4 38 15 0
21 -6 21 -21z m996 -9 c0 -12 -4 -16 -9 -11 -5 5 -6 14 -3 20 10 15 12 14 12
-9z m69 -39 c-3 -6 -11 -11 -17 -11 -6 0 -6 6 2 15 14 17 26 13 15 -4z m-80
-10 c-3 -6 -11 -11 -16 -11 -5 0 -4 6 3 14 14 16 24 13 13 -3z m4524 15 c-2
-3 -24 -28 -49 -57 -110 -128 -221 -250 -259 -284 -72 -65 -57 -29 25 62 51
56 68 81 49 69 -69 -44 -99 -66 -89 -66 5 0 15 5 22 12 7 7 12 10 12 7 0 -3
-12 -16 -27 -30 -14 -13 -23 -18 -19 -11 7 11 4 11 -13 0 -12 -7 -19 -19 -16
-26 2 -7 -7 -18 -20 -24 -14 -6 -25 -16 -25 -21 0 -5 8 -3 17 4 11 9 9 3 -6
-19 -12 -18 -27 -29 -33 -26 -6 4 -8 2 -5 -3 4 -6 -11 -27 -33 -47 -46 -41
-138 -109 -142 -104 -2 1 -21 -14 -43 -35 -35 -33 -41 -36 -51 -22 -11 14 -15
14 -47 -4 -19 -11 -38 -17 -41 -14 -3 4 -6 1 -6 -6 0 -7 -4 -9 -10 -6 -5 3
-10 2 -10 -2 0 -5 -10 -9 -22 -10 l-23 -1 23 10 c12 6 22 18 22 26 0 8 6 12
14 9 8 -3 17 0 20 8 7 20 128 96 144 90 7 -2 10 -1 7 5 -5 8 33 36 46 33 3 -1
6 5 6 13 0 17 -5 17 -39 -4 -187 -116 -212 -119 -43 -6 74 49 112 81 106 87
-11 11 -34 0 -26 -13 3 -4 -2 -10 -10 -13 -10 -4 -12 -1 -8 10 4 11 2 14 -5 9
-7 -4 -12 -13 -12 -21 0 -7 -8 -12 -17 -11 -9 2 -28 -3 -42 -11 -15 -7 -36
-13 -48 -13 -13 0 -23 -4 -23 -9 0 -5 -8 -8 -17 -7 -12 0 -17 -6 -17 -17 2
-14 -1 -15 -12 -6 -10 8 -37 2 -113 -25 -85 -30 -139 -46 -246 -72 -34 -8 22
22 105 57 113 47 419 185 472 212 26 14 44 28 40 31 -3 4 1 4 10 1 8 -3 23 1
32 10 9 9 16 14 16 11 0 -22 360 181 450 253 22 18 41 29 29 17z m-4401 -18
c15 -15 16 -28 2 -28 -5 0 -9 6 -7 13 1 6 -6 11 -15 11 -10 -1 -15 2 -12 7 7
12 18 11 32 -3z m3639 -13 c0 -8 -3 -13 -5 -10 -3 3 -14 -2 -24 -12 -10 -9
-18 -12 -18 -7 0 5 -4 3 -9 -4 -6 -11 -9 -9 -13 6 -4 15 -2 19 8 15 8 -3 14 0
14 7 0 6 4 9 8 6 4 -2 14 -1 22 5 8 5 15 9 16 9 0 0 1 -7 1 -15z m-3695 -17
c-5 -21 -4 -22 12 -9 23 20 30 9 6 -12 -18 -15 -20 -15 -28 1 -10 18 -5 42 8
42 4 0 6 -10 2 -22z m-7 -56 c-3 -3 -11 0 -18 7 -9 10 -8 11 6 5 10 -3 15 -9
12 -12z m-115 -6 c0 -3 -4 -8 -10 -11 -5 -3 -10 -1 -10 4 0 6 5 11 10 11 6 0
10 -2 10 -4z m70 -6 c0 -5 -2 -10 -4 -10 -3 0 -8 5 -11 10 -3 6 -1 10 4 10 6
0 11 -4 11 -10z m4598 -48 c-19 -20 -44 -48 -54 -61 -61 -78 -163 -184 -253
-261 -35 -30 -79 -69 -99 -87 -22 -20 -43 -31 -51 -28 -9 3 -12 3 -8 -1 9 -9
-13 -35 -24 -28 -5 3 -9 1 -9 -3 0 -5 -15 -17 -32 -27 l-33 -19 35 32 c19 18
28 30 19 28 -9 -3 -21 -2 -28 3 -9 5 -4 13 17 29 34 24 48 26 56 9 3 -7 4 -4
1 7 -3 15 7 27 41 47 40 25 44 30 33 49 -8 15 -8 19 0 15 15 -9 92 46 86 61
-2 7 1 15 7 19 7 4 8 3 4 -4 -10 -16 9 -15 26 1 7 7 23 20 35 28 31 22 140
119 203 182 61 60 85 68 28 9z m-5248 19 c13 -25 4 -48 -21 -56 -38 -12 -65
35 -37 63 18 18 46 14 58 -7z m934 3 c3 -8 2 -12 -4 -9 -6 3 -10 10 -10 16 0
14 7 11 14 -7z m-299 -4 c-3 -5 -14 -10 -23 -10 -15 0 -15 2 -2 10 20 13 33
13 25 0z m-36 -44 c-3 -3 -11 5 -18 17 -13 21 -12 21 5 5 10 -10 16 -20 13
-22z m-114 14 c-3 -5 -1 -10 6 -10 7 0 10 -3 6 -6 -9 -9 -28 6 -22 17 4 5 8 9
11 9 3 0 2 -4 -1 -10z m73 -25 c-3 -3 -9 2 -12 12 -6 14 -5 15 5 6 7 -7 10
-15 7 -18z m2931 9 c-17 -21 -130 -79 -147 -75 -8 1 -19 -2 -26 -8 -7 -6 -17
-6 -26 -1 -12 7 -11 10 5 16 11 3 38 15 60 25 33 15 131 54 144 58 2 1 -2 -6
-10 -15z m1031 11 c0 -16 -338 -168 -357 -161 -9 4 -11 1 -7 -6 5 -8 2 -9 -11
-4 -20 7 -58 -2 -51 -12 2 -4 -6 -8 -17 -8 -12 -1 -38 -4 -57 -7 -19 -3 -27
-3 -17 -1 9 3 14 10 11 15 -3 6 0 9 7 8 8 -2 32 6 54 17 22 11 59 26 82 34 23
7 40 17 37 21 -3 5 1 7 8 4 7 -2 78 20 158 49 155 57 160 59 160 51z m-5591
-59 c15 -18 3 -46 -20 -46 -25 0 -35 26 -19 45 15 19 24 19 39 1z m1641 -10
c0 -2 -8 -10 -17 -17 -16 -13 -17 -12 -4 4 13 16 21 21 21 13z m-90 -27 c9
-16 8 -26 -5 -45 -8 -13 -20 -24 -25 -24 -15 0 -40 30 -40 49 0 41 51 56 70
20z m200 1 c0 -5 -4 -10 -10 -10 -5 0 -10 5 -10 10 0 6 5 10 10 10 6 0 10 -4
10 -10z m5060 -12 c43 -46 15 -118 -46 -118 -38 0 -74 38 -74 76 0 57 80 85
120 42z m-2460 2 c18 -12 2 -12 -25 0 -13 6 -15 9 -5 9 8 0 22 -4 30 -9z
m-2705 -10 c-3 -5 -12 -10 -18 -10 -7 0 -6 4 3 10 19 12 23 12 15 0z m3552 -6
c-3 -3 -12 -4 -19 -1 -8 3 -5 6 6 6 11 1 17 -2 13 -5z m-2363 -13 c9 -14 -4
-41 -20 -41 -8 0 -14 8 -14 18 0 29 22 43 34 23z m-1690 -19 c2 -4 1 -14 -4
-22 -7 -11 -12 -12 -21 -3 -6 6 -8 16 -5 22 8 13 23 14 30 3z m564 -27 c-3 -3
-9 2 -12 12 -6 14 -5 15 5 6 7 -7 10 -15 7 -18z m4652 -17 c-36 -73 -46 -88
-57 -88 -7 0 -13 5 -13 11 0 14 40 81 54 91 20 14 27 8 16 -14z m-4790 -9 c0
-5 -4 -9 -8 -9 -5 0 -9 7 -9 15 0 8 4 12 9 9 4 -3 8 -9 8 -15z m3065 -4 c-94
-30 -243 -75 -251 -74 -29 2 227 88 261 88 28 -1 28 -1 -10 -14z m-4225 -40
c39 -20 49 -59 23 -93 -26 -36 -68 -40 -99 -11 -45 42 -23 100 44 118 2 1 16
-6 32 -14z m1165 -5 c-3 -5 -11 -10 -16 -10 -6 0 -7 5 -4 10 3 6 11 10 16 10
6 0 7 -4 4 -10z m-39 -13 c4 -4 2 -7 -5 -7 -7 0 -9 -5 -6 -10 4 -6 11 -8 16
-5 5 4 9 1 9 -5 0 -17 -21 -7 -37 17 -13 19 -12 21 1 19 8 -1 19 -5 22 -9z
m1563 -13 c-13 -14 -58 -46 -100 -71 -42 -25 -76 -52 -76 -59 0 -16 7 -17 27
-4 12 8 12 10 1 10 -8 0 -12 2 -9 5 3 3 13 3 22 -1 17 -6 -25 -34 -184 -121
l-65 -36 35 35 c19 19 37 34 40 34 3 -1 21 14 40 32 l35 34 -70 -37 c-146 -79
-313 -198 -434 -309 -25 -23 -7 1 40 53 102 114 204 197 344 280 95 57 347
180 369 181 5 0 -1 -12 -15 -26z m-1649 5 c0 8 2 12 5 9 3 -3 2 -13 -1 -22 -5
-14 -9 -15 -15 -4 -5 7 -9 18 -9 23 0 6 5 3 10 -5 8 -12 10 -12 10 -1z m4444
-21 c-3 -7 -17 -22 -32 -32 -27 -19 -27 -19 2 12 32 35 38 38 30 20z m-4387
-12 c0 -8 -6 -12 -15 -9 -11 5 -11 7 0 14 7 5 13 9 14 9 0 0 1 -6 1 -14z
m1071 -24 c3 -17 -2 -22 -17 -22 -14 0 -21 6 -21 18 0 38 33 41 38 4z m-1108
-12 c-6 -11 -15 -20 -20 -20 -6 0 -2 9 7 20 10 11 19 20 21 20 1 0 -2 -9 -8
-20z m24 -25 c-4 -8 -11 -12 -16 -9 -6 4 -5 10 3 15 19 12 19 11 13 -6z m-506
-23 c3 -17 -2 -22 -17 -22 -14 0 -21 6 -21 18 0 38 33 41 38 4z m783 11 c13
-16 12 -17 -3 -4 -17 13 -22 21 -14 21 2 0 10 -8 17 -17z m-256 -12 c3 -5 2
-12 -3 -15 -5 -3 -9 1 -9 9 0 17 3 19 12 6z m-41 -37 c5 -13 2 -15 -13 -11
-11 3 -22 0 -25 -7 -2 -6 -5 -3 -5 8 -1 12 4 16 14 12 8 -3 15 -1 15 4 0 15 7
12 14 -6z m1799 -19 c-7 -21 -12 -19 -10 4 0 11 5 18 9 15 4 -3 5 -11 1 -19z
m-1753 5 c-8 -5 -12 -10 -7 -10 4 0 -2 -9 -13 -20 -23 -23 -43 -19 -33 6 5 13
7 13 14 2 7 -10 9 -9 9 4 0 16 13 26 35 27 6 0 3 -4 -5 -9z m219 -13 c0 -9 -2
-8 -6 1 -2 6 -10 9 -15 6 -7 -4 -8 -2 -4 5 9 13 26 5 25 -12z m1554 -11 c-12
-7 -13 -10 -2 -17 11 -6 10 -9 -4 -15 -26 -10 -29 -1 -11 35 12 24 19 30 25
20 5 -9 2 -17 -8 -23z m67 14 c0 -5 -2 -10 -4 -10 -3 0 -8 5 -11 10 -3 6 -1
10 4 10 6 0 11 -4 11 -10z m2129 -31 c-19 -15 -36 -26 -38 -23 -8 7 54 62 63
57 5 -4 -6 -19 -25 -34z m281 37 c0 -2 -12 -11 -27 -20 l-28 -17 24 20 c23 21
31 25 31 17z m-2440 -26 c0 -11 -4 -20 -9 -20 -5 0 -7 9 -4 20 3 11 7 20 9 20
2 0 4 -9 4 -20z m-1620 -4 c0 -3 -4 -8 -10 -11 -5 -3 -10 -1 -10 4 0 6 5 11
10 11 6 0 10 -2 10 -4z m1650 -11 c0 -8 -7 -15 -15 -15 -8 0 -15 -5 -15 -11 0
-6 7 -8 16 -5 15 6 15 4 3 -10 -9 -11 -14 -13 -17 -4 -3 9 -7 9 -14 -1 -7 -11
-8 -9 -6 6 3 20 27 53 41 54 4 1 7 -6 7 -14z m-240 0 c0 -7 -120 -68 -153 -78
-15 -4 -26 -11 -23 -15 2 -4 -6 -8 -19 -8 -12 -1 -61 -20 -109 -42 -108 -51
-103 -38 10 24 126 68 294 137 294 119z m-1715 -33 c-3 -3 -11 0 -18 7 -9 10
-8 11 6 5 10 -3 15 -9 12 -12z m99 3 c3 -8 1 -15 -4 -15 -6 0 -10 7 -10 15 0
8 2 15 4 15 2 0 6 -7 10 -15z m1790 -10 c-4 -8 -9 -15 -13 -15 -4 0 -8 7 -8
15 0 8 6 15 13 15 8 0 11 -6 8 -15z m2586 11 c0 -2 -8 -10 -17 -17 -16 -13
-17 -12 -4 4 13 16 21 21 21 13z m-4569 -46 c5 0 9 -4 9 -10 0 -14 -28 -12
-33 3 -2 6 -1 19 2 27 4 12 6 12 9 -2 2 -10 8 -18 13 -18z m59 20 c0 -5 -5
-10 -11 -10 -5 0 -7 5 -4 10 3 6 8 10 11 10 2 0 4 -4 4 -10z m1990 -4 c0 -2
-8 -10 -17 -17 -16 -13 -17 -12 -4 4 13 16 21 21 21 13z m2570 -2 c0 -8 -19
-13 -24 -6 -3 5 1 9 9 9 8 0 15 -2 15 -3z m-2610 -25 c0 -5 -4 -9 -8 -9 -5 0
-9 7 -9 15 0 8 4 12 9 9 4 -3 8 -9 8 -15z m2550 6 c-7 -9 -15 -13 -19 -10 -3
3 1 10 9 15 21 14 24 12 10 -5z m95 -3 c-3 -3 -11 0 -18 7 -9 10 -8 11 6 5 10
-3 15 -9 12 -12z m515 -72 c-17 -34 -24 -39 -36 -30 -19 17 -19 20 19 76 31
47 32 48 35 22 2 -14 -6 -45 -18 -68z m-5740 60 c41 -41 10 -110 -49 -110 -30
0 -71 38 -71 65 0 7 9 24 21 39 25 32 70 35 99 6z m5058 3 c-9 -10 -14 -26
-13 -35 4 -21 -6 -23 -23 -6 -7 7 -12 9 -12 6 0 -4 7 -14 16 -23 9 -9 13 -19
9 -23 -3 -4 -11 1 -16 10 -9 16 -11 16 -30 -3 -11 -11 -24 -18 -27 -14 -4 3 0
10 8 15 8 6 11 10 7 10 -8 0 83 78 92 79 2 1 -3 -7 -11 -16z m-2483 -23 c20 0
19 -26 -1 -34 -14 -5 -14 -9 -3 -24 12 -16 12 -16 -6 0 -19 17 -19 18 -1 31
17 12 17 14 2 20 -9 4 -16 1 -16 -6 0 -8 -3 -7 -9 2 -5 8 -7 21 -4 29 5 12 7
12 15 -2 5 -9 16 -16 23 -16z m41 3 c-10 -10 -19 5 -10 18 6 11 8 11 12 0 2
-7 1 -15 -2 -18z m2518 -2 c7 -11 25 -9 46 4 13 7 13 6 2 -7 -7 -9 -18 -15
-25 -14 -19 3 -54 25 -40 26 6 0 14 -4 17 -9z m83 -33 c-3 -8 -6 -5 -6 6 -1
11 2 17 5 13 3 -3 4 -12 1 -19z m-4602 2 c-3 -5 -12 -10 -18 -10 -7 0 -6 4 3
10 19 12 23 12 15 0z m1925 -23 c0 -5 -4 -5 -10 -2 -5 3 -10 14 -10 23 0 15 2
15 10 2 5 -8 10 -19 10 -23z m2655 23 c3 -5 1 -10 -4 -10 -6 0 -11 5 -11 10 0
6 2 10 4 10 3 0 8 -4 11 -10z m-3061 -20 c-6 -6 -15 -5 -24 1 -13 9 -12 10 3
5 9 -3 17 0 17 6 0 6 3 8 7 5 4 -4 2 -12 -3 -17z m479 -3 c3 -8 -1 -14 -8 -14
-7 0 -11 6 -8 14 3 7 6 13 8 13 2 0 5 -6 8 -13z m2567 -7 c0 -5 -5 -10 -11
-10 -5 0 -7 5 -4 10 3 6 8 10 11 10 2 0 4 -4 4 -10z m-4279 -17 c13 -16 12
-17 -3 -4 -17 13 -22 21 -14 21 2 0 10 -8 17 -17z m1647 -30 c-7 -9 -14 -11
-16 -5 -2 6 -10 8 -18 5 -8 -3 -14 0 -14 7 0 6 4 9 8 6 4 -2 14 -1 22 4 20 13
33 1 18 -17z m-1743 -3 c3 -5 1 -10 -4 -10 -6 0 -11 5 -11 10 0 6 2 10 4 10 3
0 8 -4 11 -10z m4512 -5 c0 -8 -4 -12 -9 -9 -5 3 -6 10 -3 15 9 13 12 11 12
-6z m-2734 -1 c-7 -3 -9 -13 -6 -22 4 -14 3 -14 -5 -2 -12 16 -7 30 11 29 9 0
9 -2 0 -5z m-58 -22 c-3 -3 -11 0 -18 7 -9 10 -8 11 6 5 10 -3 15 -9 12 -12z
m36 -19 c13 -16 12 -17 -3 -4 -17 13 -22 21 -14 21 2 0 10 -8 17 -17z m2304 7
c-3 -5 -2 -10 3 -10 14 0 74 -109 67 -121 -4 -5 -11 -7 -16 -3 -5 3 -8 0 -7
-6 2 -6 -7 -19 -19 -27 -15 -10 -23 -11 -23 -4 0 6 5 11 11 11 5 0 8 4 4 9 -3
5 -1 12 5 16 6 4 7 11 4 17 -5 7 -2 9 8 5 12 -4 14 -1 11 14 -3 10 -10 19 -15
19 -5 0 -7 -4 -4 -9 3 -5 0 -11 -8 -14 -15 -6 -16 9 -3 31 6 8 0 15 -15 21
-17 7 -19 10 -5 10 9 1 17 6 17 11 0 10 -15 14 -34 11 -5 -1 -4 5 4 13 14 18
25 22 15 6z m1177 -103 c-109 -143 -271 -292 -397 -366 -169 -100 -454 -231
-425 -196 7 8 18 15 25 15 26 0 235 111 335 178 130 86 293 226 425 363 55 57
102 103 104 102 2 -2 -28 -45 -67 -96z m-5797 83 c9 -15 -4 -50 -20 -50 -18 0
-28 30 -14 46 14 17 25 18 34 4z m2282 -22 c-3 -8 -6 -5 -6 6 -1 11 2 17 5 13
3 -3 4 -12 1 -19z m67 7 c-3 -8 -14 -17 -25 -20 -10 -4 -19 -11 -19 -17 0 -6
-3 -8 -7 -5 -3 4 5 18 18 31 28 28 41 32 33 11z m2626 -5 c0 -5 -5 -10 -11
-10 -5 0 -7 5 -4 10 3 6 8 10 11 10 2 0 4 -4 4 -10z m400 -60 c-20 -38 -190
-201 -202 -194 -8 5 -9 2 -5 -9 3 -9 1 -19 -5 -23 -7 -4 -8 -3 -4 4 11 19 -20
14 -35 -5 -12 -15 -12 -16 4 -10 41 16 2 -13 -90 -65 -135 -76 -147 -82 -139
-69 4 6 26 21 49 32 23 12 44 25 47 28 3 3 22 15 43 26 20 11 37 23 37 27 0 7
-37 -9 -50 -22 -3 -3 -30 -17 -60 -33 -30 -15 -89 -45 -130 -67 -129 -68 -181
-76 -62 -10 102 58 282 182 277 191 -4 5 2 6 11 2 13 -5 15 -3 9 7 -6 9 -4 11
5 5 8 -5 18 -1 27 10 7 11 13 16 13 12 0 -13 201 125 248 170 19 19 24 16 12
-7z m-5960 -9 c0 -6 -4 -13 -10 -16 -5 -3 -10 1 -10 9 0 9 5 16 10 16 6 0 10
-4 10 -9z m849 -24 c-2 -1 -12 -9 -21 -16 -15 -12 -18 -11 -18 3 0 10 8 16 22
16 12 0 19 -1 17 -3z m2051 -1 c0 -2 -8 -10 -17 -17 -16 -13 -17 -12 -4 4 13
16 21 21 21 13z m-2125 -36 c-3 -5 -1 -10 6 -10 7 0 10 -3 6 -6 -9 -9 -28 6
-22 17 4 5 8 9 11 9 3 0 2 -4 -1 -10z m-1122 -6 c9 -10 -4 -34 -19 -34 -8 0
-14 6 -14 13 0 22 19 35 33 21z m3176 -59 c5 2 17 -5 27 -18 l19 -22 -22 19
c-22 19 -23 18 -32 -5 -7 -21 -9 -18 -8 16 0 22 2 32 4 22 3 -9 8 -15 12 -12z
m3306 15 c-3 -5 -12 -10 -18 -10 -7 0 -6 4 3 10 19 12 23 12 15 0z m-76 -73
c-45 -44 -217 -153 -283 -181 -48 -20 -46 -14 7 17 23 14 50 34 61 46 10 11
23 18 27 15 5 -3 9 1 9 9 0 17 27 30 43 20 7 -3 9 -3 5 2 -10 10 11 37 23 29
5 -3 9 -1 9 5 0 5 8 12 19 16 10 3 31 16 47 30 15 13 31 22 35 20 4 -3 12 2
19 10 7 9 15 13 18 10 3 -3 -14 -25 -39 -48z m680 8 c-32 -44 -79 -92 -109
-110 -8 -5 19 28 60 73 41 44 76 81 78 81 2 1 -11 -19 -29 -44z m-6020 19 c5
4 12 3 15 -2 10 -16 -33 -10 -46 6 -12 15 -11 16 4 4 9 -8 22 -11 27 -8z
m2160 -46 c-5 -10 -11 -18 -12 -18 -2 0 -3 8 -3 18 0 10 6 19 13 19 8 0 9 -6
2 -19z m-55 -3 c-4 -8 -8 -15 -10 -15 -2 0 -4 7 -4 15 0 8 4 15 10 15 5 0 7
-7 4 -15z m-1387 -31 c3 -8 -2 -23 -11 -32 -14 -15 -18 -15 -31 -1 -9 9 -13
23 -9 32 8 21 43 22 51 1z m1387 -9 c-5 -11 -1 -14 12 -9 18 5 18 5 1 -6 -10
-7 -21 -9 -24 -6 -6 6 3 36 11 36 3 0 3 -7 0 -15z m-2061 -35 c-3 -12 -8 -19
-11 -16 -5 6 5 36 12 36 2 0 2 -9 -1 -20z m1470 -1 c22 -6 37 -12 35 -14 -1
-2 -34 -5 -71 -8 -50 -4 -72 -10 -83 -23 -9 -11 -13 -13 -9 -6 3 6 1 12 -4 12
-6 0 -11 -5 -11 -11 0 -5 -5 -7 -11 -4 -6 4 -17 -1 -25 -11 -13 -18 -14 -18
-8 1 6 20 5 20 -10 1 -9 -12 -16 -15 -16 -7 0 9 -5 8 -16 -3 -8 -9 -20 -14
-25 -10 -12 7 -77 -15 -112 -39 -16 -11 -31 -17 -34 -14 -3 4 -12 0 -20 -8
-19 -19 -36 -19 -26 -1 24 43 174 131 247 146 60 12 155 11 199 -1z m697 7 c0
-3 -4 -8 -10 -11 -5 -3 -10 -1 -10 4 0 6 5 11 10 11 6 0 10 -2 10 -4z m2480 0
c0 -10 -153 -126 -159 -121 -3 4 1 10 10 15 8 5 44 32 80 59 65 52 69 54 69
47z m-1272 -38 c-4 -27 -23 -34 -32 -13 -8 21 1 35 20 35 10 0 14 -8 12 -22z
m-1314 -13 c-4 -8 -8 -15 -10 -15 -2 0 -4 7 -4 15 0 8 4 15 10 15 5 0 7 -7 4
-15z m106 -5 c0 -5 -5 -10 -11 -10 -5 0 -7 5 -4 10 3 6 8 10 11 10 2 0 4 -4 4
-10z m2753 -33 c3 -8 -3 -13 -14 -13 -22 0 -25 12 -6 19 6 3 13 6 13 6 1 1 4
-5 7 -12z m-2856 -42 c0 -8 -4 -12 -9 -9 -4 3 -8 9 -8 15 0 5 4 9 8 9 5 0 9
-7 9 -15z m123 -363 c-26 -212 -99 -347 -242 -443 -31 -22 -58 -39 -60 -39 -2
0 21 26 52 58 30 32 64 79 75 103 11 24 24 47 30 51 6 5 6 8 0 8 -5 0 -3 5 5
10 11 7 11 10 2 10 -10 0 -10 5 -2 20 6 12 16 18 23 14 7 -4 9 -4 5 1 -4 4 -1
13 6 19 39 31 116 363 88 379 -4 2 -1 2 6 1 6 -2 12 1 12 6 0 6 -5 10 -12 10
-9 0 -9 3 0 12 7 7 13 41 14 78 1 36 4 4 6 -70 2 -74 -2 -177 -8 -228z m-133
316 c-3 -8 -6 -5 -6 6 -1 11 2 17 5 13 3 -3 4 -12 1 -19z m-1449 -15 c-4 -34
-33 -43 -43 -14 -8 27 1 41 26 41 16 0 20 -6 17 -27z m1467 -53 l20 -25 -22
19 c-13 11 -23 24 -23 29 0 6 1 8 3 6 1 -2 11 -15 22 -29z m-601 -5 c3 -9 0
-15 -9 -15 -9 0 -12 6 -9 15 4 8 7 15 9 15 2 0 5 -7 9 -15z m66 3 c0 -7 14
-21 31 -30 16 -10 27 -13 24 -8 -3 5 1 7 9 4 24 -9 26 -30 2 -28 -41 4 -66 16
-66 33 0 14 -2 14 -11 1 -8 -12 -9 -10 -4 8 4 13 2 22 -4 22 -6 0 -11 -7 -11
-15 0 -8 -5 -15 -11 -15 -5 0 -7 -4 -4 -10 3 -6 -1 -7 -10 -4 -12 5 -13 10 -4
20 6 7 8 17 6 21 -3 5 8 10 24 11 18 1 29 -3 29 -10z m-100 -18 c0 -5 -2 -10
-4 -10 -3 0 -8 5 -11 10 -3 6 -1 10 4 10 6 0 11 -4 11 -10z m-1375 -48 c-3 -3
-11 0 -18 7 -9 10 -8 11 6 5 10 -3 15 -9 12 -12z m2010 0 c-3 -3 -11 0 -18 7
-9 10 -8 11 6 5 10 -3 15 -9 12 -12z m-1715 -88 c0 -8 -7 -14 -15 -14 -15 0
-21 21 -9 33 10 9 24 -2 24 -19z m-642 -13 c17 6 23 7 17 0 -16 -15 -48 -17
-51 -3 -1 7 0 8 2 3 4 -7 15 -6 32 0z m4422 5 c0 -2 -15 -13 -32 -24 -18 -10
-91 -55 -163 -98 -71 -43 -178 -101 -237 -129 -81 -38 -107 -55 -108 -70 -1
-11 -4 -15 -6 -8 -7 15 -46 3 -76 -23 -13 -11 -29 -19 -36 -16 -7 2 -10 -2 -6
-12 3 -9 9 -14 13 -12 4 3 7 -5 7 -16 0 -18 -2 -18 -23 6 -12 14 -25 21 -28
16 -3 -6 -1 -10 5 -10 22 0 -1 -19 -31 -25 -24 -6 -28 -9 -18 -17 10 -7 8 -8
-9 -5 -15 4 -27 -2 -37 -16 -13 -19 -17 -20 -25 -7 -7 11 -1 19 21 33 24 16
27 22 18 33 -7 8 -15 12 -18 8 -3 -4 0 -9 7 -11 21 -8 -18 -32 -53 -34 -16 -1
-22 -3 -13 -6 17 -4 56 -89 46 -99 -3 -3 -15 -6 -27 -7 -11 -1 -21 -5 -21 -10
0 -5 -7 -7 -15 -3 -8 3 -15 2 -15 -2 0 -11 -61 -32 -73 -25 -6 3 -7 1 -4 -4 4
-7 -8 -13 -28 -17 -19 -4 -35 -10 -35 -15 0 -4 -6 -8 -12 -8 -7 0 -87 -37
-178 -81 -152 -75 -315 -142 -343 -142 -6 0 56 33 139 74 83 40 200 102 260
137 60 34 130 73 157 86 26 13 47 29 47 36 0 8 -3 8 -8 1 -4 -6 -70 -36 -147
-66 -77 -31 -132 -51 -122 -45 53 34 41 32 -78 -15 -218 -84 -255 -100 -249
-110 3 -5 2 -8 -3 -7 -4 1 -19 -2 -33 -8 -14 -6 -70 -27 -125 -47 -55 -20
-120 -46 -144 -57 -24 -11 -45 -18 -48 -15 -6 5 406 213 497 251 107 44 160
68 157 72 -5 4 -209 -72 -277 -104 -106 -49 -236 -105 -355 -153 -66 -26 -156
-64 -199 -84 -148 -68 -89 -28 86 57 316 155 569 262 923 391 226 83 763 314
965 415 95 48 110 55 110 47z m-4521 -37 c-7 -4 -17 -6 -21 -3 -4 3 -18 -1
-30 -8 -23 -12 -29 -14 -49 -17 -5 0 -8 -5 -4 -10 3 -5 -7 -9 -22 -9 -16 1
-41 -4 -56 -10 -16 -7 -32 -10 -37 -7 -5 3 -11 1 -15 -4 -9 -15 -65 -41 -89
-41 -12 -1 -32 -7 -46 -15 -29 -17 -44 -19 -35 -5 16 25 329 140 370 135 14
-1 25 2 25 7 0 5 5 6 11 2 8 -4 7 -9 -2 -15z m4636 12 c3 -5 2 -12 -3 -15 -5
-3 -9 1 -9 9 0 17 3 19 12 6z m-2198 -43 c-3 -7 -5 -2 -5 12 0 14 2 19 5 13 2
-7 2 -19 0 -25z m-2166 -11 c-10 -9 -11 -8 -5 6 3 10 9 15 12 12 3 -3 0 -11
-7 -18z m557 -29 c-2 -13 -10 -23 -18 -23 -8 0 -16 10 -18 23 -3 17 2 22 18
22 16 0 21 -5 18 -22z m-763 -13 c-177 -80 -212 -93 -138 -51 44 25 141 65
158 65 6 0 -3 -6 -20 -14z m1094 -13 c-13 -10 -40 -24 -59 -32 -47 -18 -197
-79 -238 -97 -18 -8 -56 -23 -85 -33 -29 -10 -74 -27 -100 -39 -66 -28 -50 -9
28 34 84 47 218 105 346 149 117 40 143 45 108 18z m4333 -217 c42 -71 133
-231 202 -355 l125 -225 -51 -3 c-34 -2 -54 1 -60 10 -6 10 -10 11 -16 0 -6
-9 -12 -6 -20 13 -14 31 -15 35 -3 35 5 0 11 -10 14 -22 2 -13 4 -5 4 18 l1
40 -24 -20 c-14 -13 -19 -25 -13 -30 14 -15 11 -26 -5 -20 -7 3 -20 -2 -29
-10 -13 -13 -14 -12 -12 17 1 20 -4 36 -14 44 -10 8 -12 12 -3 13 15 0 16 36
0 46 -7 4 -8 3 -4 -4 4 -7 2 -12 -4 -12 -6 0 -13 6 -15 13 -3 6 -16 13 -30 13
-18 2 -25 -3 -25 -17 0 -10 -4 -19 -10 -19 -14 0 -13 5 15 57 25 47 20 68 -12
56 -7 -3 -13 0 -13 6 0 6 -5 11 -11 11 -5 0 -7 -4 -4 -10 3 -6 -1 -7 -10 -4
-18 7 -18 7 14 24 13 6 21 8 17 2 -3 -5 3 -12 14 -15 17 -4 20 0 20 23 0 16 5
32 10 35 6 4 10 16 8 28 -2 16 2 21 15 19 9 -2 17 2 17 8 0 14 -33 13 -50 -2
-9 -8 -8 -5 1 7 20 24 21 55 2 55 -7 0 -12 -3 -12 -7 3 -21 -2 -44 -9 -39 -15
9 -1 68 14 62 8 -3 14 -1 14 4 0 6 -7 10 -15 10 -8 0 -15 5 -15 11 0 5 4 7 10
4 6 -3 7 1 4 9 -5 12 -10 13 -25 5 -12 -6 -17 -15 -12 -22 4 -6 8 -20 8 -29 1
-14 -1 -15 -13 -6 -9 8 -10 14 -3 16 7 2 7 9 -2 23 -9 15 -9 23 2 40 11 19 11
21 -4 15 -11 -4 -15 -2 -12 6 2 7 10 12 16 10 7 -1 10 2 6 8 -3 5 -17 7 -31 4
-31 -8 -32 12 -1 22 21 7 21 7 2 15 -14 5 -15 8 -5 9 10 1 9 4 -5 9 -12 5 -25
4 -33 -2 -7 -6 -12 -6 -11 -1 1 5 -1 17 -5 26 -4 9 -3 25 3 36 8 16 7 21 -5
26 -8 3 -12 11 -8 18 5 8 0 9 -17 5 -20 -5 -21 -4 -9 6 21 16 19 36 -4 53 -13
9 -15 14 -6 14 10 0 11 3 3 11 -6 6 -9 18 -6 26 6 15 21 -8 145 -222z m-3048
165 c-6 -6 -10 -3 -10 10 0 13 4 16 10 10 7 -7 7 -13 0 -20z m-2223 -17 c13
-16 12 -17 -3 -4 -17 13 -22 21 -14 21 2 0 10 -8 17 -17z m-22 -24 c-16 -10
-23 -4 -14 10 3 6 11 8 17 5 6 -4 5 -9 -3 -15z m2242 -2 c-10 -9 -11 -8 -5 6
3 10 9 15 12 12 3 -3 0 -11 -7 -18z m2896 -13 c-3 -3 -12 -4 -19 -1 -8 3 -5 6
6 6 11 1 17 -2 13 -5z m-4237 -8 c0 -2 -7 -7 -16 -10 -8 -3 -12 -2 -9 4 6 10
25 14 25 6z m2495 -16 c-3 -5 -12 -10 -18 -10 -7 0 -6 4 3 10 19 12 23 12 15
0z m1359 -22 c8 -14 7 -21 -6 -34 -30 -30 -75 9 -48 42 16 18 39 15 54 -8z
m-3929 2 c-3 -5 -12 -10 -18 -10 -7 0 -6 4 3 10 19 12 23 12 15 0z m4355 6 c0
-2 -8 -10 -17 -17 -16 -13 -17 -12 -4 4 13 16 21 21 21 13z m-1870 -19 c-25
-13 -64 -28 -105 -41 -11 -4 7 7 40 23 58 29 116 44 65 18z m660 -1 c0 -2 -8
-10 -17 -17 -16 -13 -17 -12 -4 4 13 16 21 21 21 13z m-66 -41 c-7 -16 -280
-156 -288 -148 -13 13 -4 21 53 44 51 20 58 26 48 39 -10 13 -10 13 5 2 14
-11 27 -7 87 26 38 22 73 37 77 34 4 -4 4 1 1 10 -4 12 -2 15 8 12 8 -3 11
-12 9 -19z m-3960 7 c3 -5 -1 -9 -9 -9 -8 0 -12 4 -9 9 3 4 7 8 9 8 2 0 6 -4
9 -8z m-19 -32 c-4 -6 -1 -17 5 -25 16 -19 3 -20 -15 -1 -10 10 -11 16 -2 25
14 14 20 14 12 1z m3850 0 c-3 -5 -12 -10 -18 -10 -7 0 -6 4 3 10 19 12 23 12
15 0z m1395 -26 c0 -2 -9 -8 -20 -14 -15 -8 -18 -8 -14 3 4 11 34 21 34 11z
m-5255 -26 c5 -4 0 -6 -12 -6 -13 1 -19 7 -16 15 3 8 8 10 12 6 3 -4 10 -11
16 -15z m18 -28 c-9 -10 -20 -17 -24 -14 -10 6 23 42 33 37 4 -2 0 -12 -9 -23z
m3723 18 c4 -7 3 -8 -4 -4 -7 4 -12 2 -12 -5 0 -7 -3 -10 -6 -6 -6 5 3 27 11
27 2 0 7 -5 11 -12z m-36 -8 c0 -5 -5 -10 -11 -10 -5 0 -7 5 -4 10 3 6 8 10
11 10 2 0 4 -4 4 -10z m1595 -8 c-3 -3 -11 0 -18 7 -9 10 -8 11 6 5 10 -3 15
-9 12 -12z m-627 -15 c2 -10 -3 -17 -12 -17 -18 0 -29 16 -21 31 9 14 29 6 33
-14z m667 3 c3 -6 -1 -7 -9 -4 -18 7 -21 14 -7 14 6 0 13 -4 16 -10z m-1656
-51 c-19 -12 -32 5 -24 31 l7 22 15 -22 c13 -19 13 -24 2 -31z m-3712 16 c-4
-8 -2 -17 2 -20 5 -2 11 4 14 15 3 11 13 20 24 20 17 -1 17 -1 0 -11 -9 -6
-15 -14 -12 -19 10 -16 -26 -19 -45 -3 -21 18 -18 33 7 33 9 0 13 -6 10 -15z
m88 -4 c-3 -6 -11 -11 -16 -11 -5 0 -4 6 3 14 14 16 24 13 13 -3z m1320 -9
l90 -17 -155 -6 c-330 -14 -669 -99 -980 -245 -122 -57 -122 -55 6 30 326 218
693 302 1039 238z m2269 -14 c-3 -4 -10 -6 -15 -3 -5 4 -9 0 -10 -7 0 -7 -5
-2 -10 11 -7 18 -6 27 3 33 14 9 41 -19 32 -34z m1666 38 c0 -3 -4 -8 -10 -11
-5 -3 -10 -1 -10 4 0 6 5 11 10 11 6 0 10 -2 10 -4z m-5299 -59 c-10 -9 -11
-8 -5 6 3 10 9 15 12 12 3 -3 0 -11 -7 -18z m5327 7 c-1 -5 -9 -9 -16 -10 -10
-2 -11 1 -1 12 12 14 24 13 17 -2z m-5398 -16 c0 7 5 12 10 12 6 0 3 -11 -6
-25 -9 -14 -21 -25 -28 -25 -6 0 -4 5 4 10 13 9 8 14 -11 12 -4 -1 -4 8 -1 20
5 20 6 20 19 3 7 -11 13 -13 13 -7z m5340 2 c0 -5 -4 -10 -10 -10 -5 0 -10 5
-10 10 0 6 5 10 10 10 6 0 10 -4 10 -10z m90 -20 c-6 -11 -12 -20 -14 -20 -2
0 -2 9 1 20 3 11 9 20 15 20 5 0 4 -9 -2 -20z m-35 1 c-3 -5 1 -16 10 -24 13
-13 13 -16 0 -21 -20 -7 -38 27 -23 42 14 14 21 16 13 3z m-5385 -31 c0 -5 -4
-10 -9 -10 -5 0 -8 -12 -5 -27 3 -20 2 -24 -5 -14 -8 12 -12 10 -22 -12 -8
-18 -20 -27 -36 -27 -15 0 -22 4 -18 11 4 6 13 8 20 5 7 -2 22 8 33 24 20 26
20 29 4 35 -15 6 -15 8 3 15 28 12 35 12 35 0z m40 -13 c0 -8 -3 -8 -9 1 -6
11 -10 10 -15 -4 -3 -9 -9 -14 -13 -11 -8 9 17 38 28 31 5 -3 9 -11 9 -17z
m4560 -3 c0 -8 -7 -14 -15 -14 -15 0 -21 21 -9 33 10 9 24 -2 24 -19z m856 6
c15 0 19 -16 6 -24 -11 -6 -43 30 -34 39 4 3 8 1 10 -4 2 -6 10 -11 18 -11z
m-5536 -10 c0 -5 -5 -10 -11 -10 -5 0 -8 -4 -4 -9 3 -5 1 -12 -4 -15 -5 -3
-11 3 -14 14 -3 11 -1 18 4 14 5 -3 9 0 9 5 0 6 5 11 10 11 6 0 10 -4 10 -10z
m5507 -26 c-2 -2 -12 -1 -22 3 -18 6 -18 7 1 13 17 7 33 -5 21 -16z m-69 -5
c11 0 12 -2 4 -6 -6 -2 -10 -10 -6 -16 3 -7 -2 -3 -10 7 -9 11 -16 25 -15 30
0 6 3 5 6 -1 2 -7 12 -13 21 -14z m-5323 -18 c-6 -5 -25 10 -25 20 0 5 6 4 14
-3 8 -7 12 -15 11 -17z m-133 -31 c16 0 4 -45 -12 -45 -8 0 -21 -4 -27 -8 -9
-5 -13 -3 -13 7 0 9 5 16 11 16 8 0 8 5 -1 15 -8 10 -9 15 -2 15 6 0 16 -8 21
-17 10 -17 10 -17 11 -1 0 10 -9 23 -19 30 -16 10 -17 15 -8 26 9 12 13 10 20
-12 5 -14 13 -26 19 -26z m5488 26 c0 -3 -4 -8 -10 -11 -5 -3 -10 -1 -10 4 0
6 5 11 10 11 6 0 10 -2 10 -4z m-21 -41 l25 -24 -635 3 c-349 2 -646 4 -661 5
-34 1 -36 16 -5 27 31 11 479 20 897 16 l355 -3 24 -24z m-5373 10 c-5 -13 -3
-13 18 0 19 13 55 15 197 13 l174 -3 -36 -22 c-32 -20 -48 -22 -183 -22 -81 0
-151 -3 -157 -6 -5 -4 -9 -2 -9 4 0 5 -9 9 -20 8 -11 -1 -20 -7 -20 -14 0 -7
7 -10 18 -6 9 3 14 3 10 -1 -3 -4 -14 -9 -24 -10 -10 -2 -20 -9 -22 -16 -3 -9
1 -11 12 -7 18 7 20 -1 7 -22 -11 -17 -39 -23 -59 -12 -12 7 -12 9 2 14 9 4
16 1 16 -5 0 -8 4 -8 13 1 9 10 9 15 0 18 -7 2 -9 11 -6 19 4 10 0 12 -13 8
-11 -4 -16 -4 -12 0 3 4 14 9 25 10 10 2 19 11 20 22 2 10 0 13 -3 7 -8 -18
-24 -16 -24 3 0 11 6 15 20 11 10 -3 27 1 37 9 23 17 26 17 19 -1z m1608 1
c40 -10 50 -17 36 -26 -13 -8 -437 -5 -460 4 -8 3 -26 7 -40 9 -15 2 0 7 40
14 71 12 377 11 424 -1z m3836 -31 c-7 -9 -15 -13 -19 -10 -3 3 1 10 9 15 21
14 24 12 10 -5z m-5395 -25 c3 -5 1 -10 -4 -10 -6 0 -11 5 -11 10 0 6 2 10 4
10 3 0 8 -4 11 -10z m5275 0 c0 -5 -2 -10 -4 -10 -3 0 -8 5 -11 10 -3 6 -1 10
4 10 6 0 11 -4 11 -10z m-5317 -15 c-3 -9 -8 -14 -10 -11 -3 3 -2 9 2 15 9 16
15 13 8 -4z m88 -12 c13 -16 12 -17 -3 -4 -10 7 -18 15 -18 17 0 8 8 3 21 -13z
m5184 7 c-3 -5 -12 -10 -18 -10 -7 0 -6 4 3 10 19 12 23 12 15 0z m-5235 -4
c0 -3 -4 -8 -10 -11 -5 -3 -10 -1 -10 4 0 6 5 11 10 11 6 0 10 -2 10 -4z m-50
-33 c-1 -18 -18 -35 -24 -24 -4 6 -2 11 4 11 6 0 8 5 5 10 -3 6 -1 10 4 10 6
0 11 -3 11 -7z m5496 -36 c10 4 12 0 8 -10 -3 -10 -12 -13 -22 -9 -15 5 -16 4
-2 -14 14 -19 14 -19 -8 0 -22 19 -22 19 -22 0 0 -16 -3 -15 -13 6 -17 31 -14
35 12 21 19 -11 20 -9 16 21 -5 32 -5 32 6 6 6 -17 15 -25 25 -21z m-5346 15
c0 -5 -7 -17 -15 -28 -14 -18 -14 -17 -4 9 12 27 19 34 19 19z m5215 -30 c-3
-3 -11 0 -18 7 -9 10 -8 11 6 5 10 -3 15 -9 12 -12z m30 8 c3 -5 1 -10 -4 -10
-6 0 -11 5 -11 10 0 6 2 10 4 10 3 0 8 -4 11 -10z m-5298 -40 c-2 -11 -6 -22
-9 -26 -4 -3 -5 2 -3 13 2 10 4 21 4 26 1 4 3 7 6 7 3 0 4 -9 2 -20z m5436 7
c3 -8 2 -18 -1 -23 -9 -11 -47 -12 -59 -1 -4 5 -3 8 2 7 22 -5 45 1 45 11 0 5
-5 7 -12 3 -7 -4 -8 -3 -4 4 10 16 23 15 29 -1z m-111 -19 c-7 -7 -12 -8 -12
-2 0 14 12 26 19 19 2 -3 -1 -11 -7 -17z m-2007 7 c-5 -2 -77 -22 -160 -45
-82 -23 -199 -57 -260 -75 -60 -19 -153 -46 -205 -61 -264 -74 -424 -142 -600
-253 -14 -10 -21 -11 -17 -4 26 42 345 233 388 233 10 0 21 5 24 10 4 6 10 8
14 6 4 -3 13 0 21 5 22 15 -64 2 -136 -20 -32 -11 -112 -40 -177 -64 -65 -25
-129 -44 -143 -42 -13 1 -24 -2 -24 -7 0 -5 -5 -6 -10 -3 -6 4 -17 1 -25 -5
-8 -7 -15 -9 -15 -6 0 4 -10 1 -22 -6 -13 -7 -27 -11 -31 -10 -5 1 -20 -6 -35
-16 -37 -25 -58 -32 -68 -22 -5 5 -15 5 -24 -1 -12 -9 -11 -10 5 -4 50 16 -6
-16 -68 -39 -37 -14 -111 -48 -164 -75 -112 -58 -105 -47 30 42 256 171 561
293 902 362 207 41 870 125 800 100z m1118 -177 c-2 -5 -10 -8 -18 -8 -8 0
-16 3 -18 8 -3 4 5 7 18 7 13 0 21 -3 18 -7z m-176 -13 c-9 -8 -17 -20 -19
-27 -4 -10 -10 -10 -29 -1 -13 7 -33 14 -44 17 -11 3 -1 4 23 2 23 -2 40 0 37
4 -5 9 11 18 33 19 10 1 10 -2 -1 -14z m-267 -3 c0 -4 -50 -16 -111 -26 -61
-10 -144 -29 -184 -41 -41 -13 -76 -20 -79 -17 -3 3 -6 1 -6 -4 0 -5 -15 -10
-32 -11 -28 -1 -53 -4 -111 -12 -5 0 -5 -10 -2 -21 4 -11 2 -20 -4 -20 -6 0
-11 9 -11 20 0 34 -33 20 -37 -15 -1 -11 0 -14 3 -7 6 14 24 16 24 3 0 -15
-32 -22 -47 -10 -11 10 -11 14 -1 20 7 4 9 11 5 15 -8 9 -18 1 -21 -18 -3 -24
-16 -37 -31 -31 -8 3 -15 9 -15 15 0 5 4 7 9 3 5 -3 12 -1 16 5 4 6 -4 9 -19
8 -17 -2 -24 -8 -23 -20 1 -10 6 -18 12 -19 5 0 -15 -7 -45 -14 -61 -15 -77
-13 -31 3 20 7 31 17 30 29 -1 17 -2 17 -6 1 -2 -10 -12 -18 -21 -17 -11 0
-12 2 -4 6 6 2 9 9 6 14 -4 6 -11 6 -19 -1 -8 -7 -26 -13 -40 -16 -104 -16
-157 -32 -149 -46 4 -7 0 -7 -12 0 -29 14 -48 4 -32 -16 12 -15 11 -16 -4 -4
-15 12 -31 10 -110 -13 -51 -14 -118 -37 -148 -49 -95 -40 -119 -37 -35 4 170
83 655 224 930 269 72 12 180 26 240 30 61 5 111 9 113 10 1 0 2 -3 2 -7z m47
2 c-3 -3 -12 -4 -19 -1 -8 3 -5 6 6 6 11 1 17 -2 13 -5z m280 0 c-3 -3 -12 -4
-19 -1 -8 3 -5 6 6 6 11 1 17 -2 13 -5z m-187 -24 c0 -6 10 -8 23 -5 12 3 37
0 55 -8 l33 -14 -73 -13 c-40 -7 -80 -15 -88 -17 -12 -4 -12 -3 -1 5 24 18 -3
18 -69 2 -49 -13 -59 -18 -40 -21 15 -3 -7 -10 -57 -18 -45 -7 -90 -11 -98 -7
-9 3 -13 2 -10 -4 3 -6 -2 -10 -12 -10 -18 0 -167 -31 -258 -54 -27 -7 -65
-11 -82 -10 -18 1 -31 -2 -28 -6 3 -4 -2 -11 -11 -14 -22 -9 -52 -7 -58 2 -3
5 9 6 26 4 20 -3 29 -1 24 6 -4 6 16 19 49 31 64 24 91 26 98 9 3 -7 6 -8 6
-3 0 6 -4 17 -9 25 -7 12 -15 13 -40 3 -24 -9 -30 -9 -27 0 2 7 24 13 48 14
24 0 55 4 69 7 26 6 111 21 165 30 126 19 278 48 311 60 48 18 54 19 54 6z
m-2630 -111 c-25 -5 -80 -16 -123 -25 -43 -9 -84 -17 -90 -18 -7 -2 -19 -6
-27 -9 -8 -3 -44 -13 -80 -22 -36 -9 -114 -32 -174 -51 -59 -18 -112 -31 -117
-28 -5 3 -9 1 -9 -3 0 -5 -28 -19 -61 -33 -34 -13 -96 -44 -138 -67 l-76 -44
75 76 c75 76 163 131 245 154 45 13 242 51 263 51 9 0 12 -6 8 -17 -4 -11 2
-8 14 7 13 17 20 20 20 10 0 -13 2 -13 9 -1 8 12 12 13 26 1 14 -11 16 -11 13
1 -2 11 10 14 55 15 31 1 60 3 62 6 3 3 38 5 78 6 69 0 70 0 27 -9z m-1150
-33 c0 -2 -7 -7 -16 -10 -8 -3 -12 -2 -9 4 6 10 25 14 25 6z m2873 -23 c-7 -2
-13 -10 -13 -17 0 -7 -17 -18 -37 -24 -47 -15 -56 -8 -10 7 20 7 38 18 41 26
3 8 11 15 18 14 10 0 10 -2 1 -6z m1657 -262 c-8 -5 -26 -11 -40 -15 -21 -5
-20 -3 5 9 32 15 60 20 35 6z m-706 -38 c9 -21 -16 -46 -37 -37 -17 6 -23 35
-10 47 12 13 41 7 47 -10z"/>
<path d="M5595 7201 c-3 -5 -1 -12 5 -16 5 -3 10 1 10 9 0 18 -6 21 -15 7z"/>
<path d="M5491 7184 c0 -11 3 -14 6 -6 3 7 2 16 -1 19 -3 4 -6 -2 -5 -13z"/>
<path d="M5536 7152 c-3 -5 1 -9 9 -9 8 0 12 4 9 9 -3 4 -7 8 -9 8 -2 0 -6 -4
-9 -8z"/>
<path d="M5500 7130 c0 -5 7 -10 16 -10 8 0 12 5 9 10 -3 6 -10 10 -16 10 -5
0 -9 -4 -9 -10z"/>
<path d="M5565 7130 c-3 -6 1 -7 9 -4 18 7 21 14 7 14 -6 0 -13 -4 -16 -10z"/>
<path d="M5631 7129 c-1 -9 7 -23 17 -32 17 -15 18 -15 19 6 2 17 0 18 -7 7
-7 -12 -11 -10 -19 10 -6 15 -10 18 -10 9z"/>
<path d="M5532 7108 c-14 -14 -16 -28 -3 -28 5 0 11 9 14 20 6 23 5 24 -11 8z"/>
<path d="M5576 7111 c-3 -5 0 -11 8 -14 8 -3 17 1 20 9 6 15 -19 20 -28 5z"/>
<path d="M4533 7085 c0 -10 4 -12 12 -5 7 5 15 7 18 3 4 -3 7 -1 7 5 0 7 -8
12 -18 12 -10 0 -19 -7 -19 -15z"/>
<path d="M5610 7093 c0 -6 5 -15 10 -18 6 -4 8 -11 5 -16 -10 -15 2 -10 16 8
8 10 9 14 2 10 -7 -4 -16 0 -22 10 -6 10 -11 13 -11 6z"/>
<path d="M4580 7060 c0 -11 4 -20 8 -20 4 0 8 9 8 20 0 11 -4 20 -8 20 -4 0
-8 -9 -8 -20z"/>
<path d="M4465 7050 c-3 -5 -1 -10 4 -10 6 0 11 5 11 10 0 6 -2 10 -4 10 -3 0
-8 -4 -11 -10z"/>
<path d="M4516 7052 c-2 -4 4 -8 14 -8 10 0 16 4 14 8 -3 4 -9 8 -14 8 -5 0
-11 -4 -14 -8z"/>
<path d="M5655 7050 c3 -5 8 -10 11 -10 2 0 4 5 4 10 0 6 -5 10 -11 10 -5 0
-7 -4 -4 -10z"/>
<path d="M5434 7016 c0 -13 4 -22 9 -19 10 6 9 31 -2 37 -5 3 -8 -5 -7 -18z"/>
<path d="M4500 7015 c0 -8 7 -15 15 -15 8 0 15 4 15 9 0 5 -7 11 -15 15 -9 3
-15 0 -15 -9z"/>
<path d="M4556 7023 c5 -5 12 -12 16 -18 4 -6 8 -2 8 8 0 9 -7 17 -17 17 -9 0
-12 -3 -7 -7z"/>
<path d="M5685 7020 c3 -5 8 -10 11 -10 2 0 4 5 4 10 0 6 -5 10 -11 10 -5 0
-7 -4 -4 -10z"/>
<path d="M4457 7010 c8 -9 9 -19 2 -32 -5 -10 -6 -18 -1 -18 10 0 37 29 31 33
-2 1 -13 9 -24 17 -15 11 -17 11 -8 0z"/>
<path d="M4545 7001 c-3 -5 -1 -12 5 -16 5 -3 10 1 10 9 0 18 -6 21 -15 7z"/>
<path d="M5716 6974 c-3 -8 -2 -13 3 -9 5 3 11 0 13 -7 3 -8 7 -6 11 4 3 9 0
19 -8 22 -7 2 -16 -2 -19 -10z"/>
<path d="M4475 6948 c-33 -19 -60 -48 -45 -48 7 0 18 8 25 17 12 16 14 16 29
1 9 -10 13 -24 9 -35 -5 -14 -2 -14 14 4 11 13 24 19 28 15 5 -4 5 -1 1 6 -5
7 -14 11 -22 8 -20 -8 -31 24 -13 35 21 13 -3 10 -26 -3z"/>
<path d="M5760 6944 c0 -8 -4 -12 -10 -9 -5 3 -10 1 -10 -4 0 -18 19 -12 30 9
7 14 7 20 0 20 -5 0 -10 -7 -10 -16z"/>
<path d="M4360 6926 c0 -2 8 -10 18 -17 15 -13 16 -12 3 4 -13 16 -21 21 -21
13z"/>
<path d="M5681 6914 c0 -11 3 -14 6 -6 3 7 2 16 -1 19 -3 4 -6 -2 -5 -13z"/>
<path d="M5707 6898 c-19 -40 -13 -53 14 -30 17 14 18 17 4 20 -13 3 -14 7 -4
18 6 8 10 17 7 20 -3 2 -12 -10 -21 -28z"/>
<path d="M5780 6922 c0 -5 7 -9 15 -9 8 0 12 4 9 9 -3 4 -9 8 -15 8 -5 0 -9
-4 -9 -8z"/>
<path d="M4452 6893 c-10 -10 -10 -13 2 -13 10 0 13 -6 10 -15 -4 -8 -15 -15
-25 -15 -10 0 -19 -4 -19 -10 0 -5 7 -7 15 -4 8 4 22 1 30 -6 13 -11 14 -10 9
4 -3 9 -1 16 5 16 6 0 11 -5 11 -12 0 -6 2 -9 5 -6 3 2 -3 20 -13 39 -15 29
-20 33 -30 22z"/>
<path d="M4399 6873 c-12 -16 -12 -17 2 -6 9 7 20 9 24 5 5 -4 5 -1 1 6 -9 16
-11 15 -27 -5z"/>
<path d="M5751 6866 c-9 -10 -8 -16 4 -26 9 -7 19 -10 22 -6 4 4 1 11 -6 15
-7 5 -10 14 -7 20 10 16 1 14 -13 -3z"/>
<path d="M4350 6850 c0 -5 5 -10 11 -10 5 0 7 5 4 10 -3 6 -8 10 -11 10 -2 0
-4 -4 -4 -10z"/>
<path d="M4370 6812 c0 -15 4 -20 16 -15 9 3 12 9 7 12 -4 3 -11 10 -15 15 -5
5 -8 0 -8 -12z"/>
<path d="M5845 6795 c2 -43 8 -50 32 -36 17 10 17 10 1 11 -10 0 -18 5 -18 11
0 5 5 7 10 4 6 -3 10 -1 10 4 0 6 -7 11 -16 11 -8 0 -13 4 -9 9 3 5 1 12 -3
15 -5 3 -8 -10 -7 -29z"/>
<path d="M4401 6781 c-25 -22 -26 -28 -6 -28 8 0 15 7 15 15 0 9 7 13 20 9 23
-6 28 8 6 16 -8 3 -24 -2 -35 -12z"/>
<path d="M4342 6749 c2 -7 10 -15 17 -17 8 -3 12 1 9 9 -2 7 -10 15 -17 17 -8
3 -12 -1 -9 -9z"/>
<path d="M5870 6740 c0 -5 7 -7 15 -4 8 4 15 8 15 10 0 2 -7 4 -15 4 -8 0 -15
-4 -15 -10z"/>
<path d="M4270 6690 c0 -5 -6 -7 -14 -4 -8 3 -17 1 -21 -5 -4 -7 2 -10 16 -8
20 3 41 27 25 27 -3 0 -6 -4 -6 -10z"/>
<path d="M4286 6652 c-3 -4 4 -9 15 -9 23 -2 25 3 4 10 -8 4 -16 3 -19 -1z"/>
<path d="M4216 6642 c-3 -5 1 -9 9 -9 8 0 15 4 15 9 0 4 -4 8 -9 8 -6 0 -12
-4 -15 -8z"/>
<path d="M4250 6625 c0 -9 -4 -13 -10 -10 -5 3 -10 2 -10 -4 0 -5 5 -13 10
-16 6 -3 10 -1 10 6 0 7 10 9 25 7 14 -3 25 -4 25 -3 0 2 -11 10 -25 19 -23
15 -25 15 -25 1z"/>
<path d="M4949 6623 c-13 -17 -13 -17 6 -3 11 8 22 16 24 17 2 2 0 3 -6 3 -6
0 -17 -8 -24 -17z"/>
<path d="M4930 6596 c0 -2 7 -7 16 -10 8 -3 12 -2 9 4 -6 10 -25 14 -25 6z"/>
<path d="M5033 6565 c0 -8 4 -15 9 -15 4 0 8 4 8 9 0 6 -4 12 -8 15 -5 3 -9
-1 -9 -9z"/>
<path d="M4940 6559 c0 -5 -4 -8 -9 -4 -5 3 -12 1 -15 -4 -4 -5 2 -8 11 -7 15
3 33 26 19 26 -3 0 -6 -5 -6 -11z"/>
<path d="M4168 6553 c7 -3 16 -2 19 1 4 3 -2 6 -13 5 -11 0 -14 -3 -6 -6z"/>
<path d="M4945 6529 c-4 -6 -13 -8 -21 -5 -18 7 -13 -29 5 -47 11 -10 13 -8 8
11 -4 15 1 27 16 37 12 8 16 15 10 15 -7 0 -15 -5 -18 -11z"/>
<path d="M5022 6528 c2 -5 8 -9 13 -9 5 0 11 4 13 9 1 5 -4 9 -13 9 -9 0 -14
-4 -13 -9z"/>
<path d="M4140 6521 c0 -11 26 -22 34 -14 3 4 6 11 6 17 0 6 -5 4 -10 -4 -6
-10 -10 -11 -10 -2 0 6 -4 12 -10 12 -5 0 -10 -4 -10 -9z"/>
<path d="M4960 6510 c0 -5 5 -10 11 -10 5 0 7 5 4 10 -3 6 -8 10 -11 10 -2 0
-4 -4 -4 -10z"/>
<path d="M4130 6490 c0 -5 5 -10 10 -10 6 0 10 5 10 10 0 6 -4 10 -10 10 -5 0
-10 -4 -10 -10z"/>
<path d="M4990 6490 c0 -5 -3 -9 -7 -9 -21 3 -33 -2 -27 -12 5 -8 9 -8 14 1 6
9 10 6 15 -9 3 -11 11 -21 18 -21 8 0 8 3 -1 12 -15 15 -16 32 -2 23 6 -3 10
1 10 9 0 9 -4 16 -10 16 -5 0 -10 -4 -10 -10z"/>
<path d="M5030 6486 c7 -7 14 -6 21 1 9 9 7 12 -9 10 -14 -1 -18 -5 -12 -11z"/>
<path d="M5027 6455 c3 -9 -3 -25 -13 -36 -17 -18 -17 -21 -1 -36 10 -10 17
-12 17 -6 0 7 -5 15 -11 19 -8 5 -6 10 6 16 11 7 21 6 28 -2 9 -8 7 -9 -8 -4
-16 6 -18 5 -7 -7 8 -9 15 -10 23 -2 7 7 6 15 -5 26 -9 9 -16 23 -16 31 0 9
-4 16 -10 16 -5 0 -7 -7 -3 -15z"/>
<path d="M4910 6439 c0 -5 5 -7 10 -4 6 3 10 2 10 -4 0 -5 -6 -12 -12 -14 -8
-3 -6 -6 5 -6 9 -1 18 0 20 1 1 1 12 -4 25 -11 14 -7 22 -8 22 -2 0 6 -11 13
-24 17 -14 3 -27 12 -30 20 -6 16 -26 19 -26 3z"/>
<path d="M4960 6440 c0 -5 5 -10 11 -10 5 0 7 5 4 10 -3 6 -8 10 -11 10 -2 0
-4 -4 -4 -10z"/>
<path d="M4931 6376 c-21 -12 -21 -14 -6 -20 10 -3 18 -5 19 -4 1 2 8 11 15
21 16 20 5 21 -28 3z"/>
<path d="M3886 6173 c-6 -14 -5 -15 5 -6 7 7 10 15 7 18 -3 3 -9 -2 -12 -12z"/>
<path d="M3641 6125 c1 -19 18 -51 18 -35 0 8 -4 22 -9 30 -5 8 -9 11 -9 5z"/>
<path d="M3675 6100 c3 -5 11 -10 16 -10 6 0 7 5 4 10 -3 6 -11 10 -16 10 -6
0 -7 -4 -4 -10z"/>
<path d="M4810 5436 c0 -2 7 -7 16 -10 8 -3 12 -2 9 4 -6 10 -25 14 -25 6z"/>
<path d="M4850 5299 c0 -5 5 -7 10 -4 6 3 10 8 10 11 0 2 -4 4 -10 4 -5 0 -10
-5 -10 -11z"/>
<path d="M4873 5260 c-1 -11 2 -20 7 -20 4 0 7 7 6 15 -3 23 -12 26 -13 5z"/>
<path d="M4836 5205 c4 -8 10 -15 15 -15 4 0 6 7 3 15 -4 8 -10 15 -15 15 -4
0 -6 -7 -3 -15z"/>
<path d="M4814 5186 c0 -14 6 -22 14 -19 6 3 12 -1 12 -8 0 -7 3 -10 6 -6 4 3
-3 17 -14 31 l-20 26 2 -24z"/>
<path d="M4850 5131 c-8 -6 -17 -8 -20 -7 -3 2 -13 -5 -22 -16 -10 -10 -13
-18 -7 -18 5 0 7 -5 4 -10 -4 -6 -10 -8 -15 -5 -4 3 -14 -3 -21 -13 -11 -14
-11 -15 0 -5 7 6 20 9 27 6 8 -3 14 0 14 6 0 6 6 11 14 11 7 0 19 7 26 15 15
18 -1 20 -18 3 -6 -6 -14 -9 -18 -6 -3 4 8 14 25 23 17 8 31 18 31 20 0 7 -3
6 -20 -4z"/>
<path d="M4875 5109 c-4 -6 -5 -12 -2 -15 2 -3 7 2 10 11 7 17 1 20 -8 4z"/>
<path d="M4840 5070 c-24 -15 -7 -18 20 -3 14 7 18 13 10 13 -8 0 -22 -4 -30
-10z"/>
<path d="M4798 5032 c14 -13 19 -26 15 -40 -3 -12 -1 -22 4 -22 5 0 10 10 10
22 1 13 9 28 18 34 8 6 15 15 15 19 0 4 -6 2 -13 -4 -8 -6 -17 -8 -21 -4 -3 4
-16 8 -28 10 l-22 3 22 -18z"/>
<path d="M4765 5009 c-4 -6 -5 -12 -2 -15 2 -3 7 2 10 11 7 17 1 20 -8 4z"/>
<path d="M4843 5005 c-3 -9 -3 -18 -1 -21 3 -3 8 4 11 16 6 23 -1 27 -10 5z"/>
<path d="M4874 4972 c-14 -9 -14 -41 1 -36 6 3 11 13 11 24 0 11 0 20 -1 20 0
0 -5 -4 -11 -8z"/>
<path d="M4760 4822 c0 -5 7 -15 15 -22 8 -7 15 -8 15 -2 0 5 -7 15 -15 22 -8
7 -15 8 -15 2z"/>
<path d="M4763 4752 c0 -21 2 -29 7 -22 5 7 6 19 3 26 -2 7 4 14 14 16 16 3
16 4 -2 9 -18 5 -21 1 -22 -29z"/>
<path d="M4767 4693 c-4 -3 -7 -11 -7 -17 0 -6 5 -5 12 2 6 6 9 14 7 17 -3 3
-9 2 -12 -2z"/>
<path d="M6620 6881 c0 -6 4 -13 10 -16 6 -3 7 1 4 9 -7 18 -14 21 -14 7z"/>
<path d="M6541 6831 c-8 -5 -9 -11 -3 -15 5 -3 12 1 16 9 6 17 6 18 -13 6z"/>
<path d="M6182 6655 c6 -14 15 -25 20 -25 5 0 1 11 -8 25 -9 14 -18 25 -20 25
-2 0 2 -11 8 -25z"/>
<path d="M6040 6589 c0 -5 5 -7 10 -4 6 3 10 8 10 11 0 2 -4 4 -10 4 -5 0 -10
-5 -10 -11z"/>
<path d="M5780 6735 c-7 -8 -11 -15 -9 -16 2 0 14 -2 26 -3 19 -2 21 0 11 13
-7 9 -13 17 -14 19 -1 1 -7 -4 -14 -13z"/>
<path d="M6150 6400 c0 -5 5 -10 10 -10 6 0 10 5 10 10 0 6 -4 10 -10 10 -5 0
-10 -4 -10 -10z"/>
<path d="M7335 5810 c4 -6 1 -17 -5 -25 -7 -9 -8 -15 -2 -15 10 0 22 23 22 41
0 5 -5 9 -11 9 -5 0 -7 -5 -4 -10z"/>
<path d="M7002 5734 c-7 -8 -8 -14 -3 -14 10 0 25 19 20 25 -2 1 -10 -3 -17
-11z"/>
<path d="M6350 5998 c0 -3 5 -19 11 -37 10 -29 29 -43 29 -21 0 6 -5 10 -11
10 -5 0 -8 3 -5 8 2 4 -2 16 -10 27 -8 10 -14 16 -14 13z"/>
<path d="M6385 5910 c3 -5 8 -10 11 -10 2 0 4 5 4 10 0 6 -5 10 -11 10 -5 0
-7 -4 -4 -10z"/>
<path d="M6730 5861 c0 -6 4 -13 10 -16 6 -3 7 1 4 9 -7 18 -14 21 -14 7z"/>
<path d="M6472 5770 c12 -22 24 -38 26 -35 7 6 -30 75 -40 75 -4 0 3 -18 14
-40z"/>
<path d="M6880 5749 c0 -5 5 -7 10 -4 6 3 10 8 10 11 0 2 -4 4 -10 4 -5 0 -10
-5 -10 -11z"/>
<path d="M6801 5693 c-6 -10 -11 -12 -11 -5 0 6 -5 12 -11 12 -8 0 -8 -5 1
-15 17 -20 27 -19 33 5 6 25 1 26 -12 3z"/>
<path d="M6755 5638 l-20 -21 22 12 c23 12 40 31 26 30 -4 0 -17 -10 -28 -21z"/>
<path d="M6715 5600 c-3 -6 1 -7 9 -4 18 7 21 14 7 14 -6 0 -13 -4 -16 -10z"/>
<path d="M6615 5520 c-3 -5 -2 -10 4 -10 5 0 13 5 16 10 3 6 2 10 -4 10 -5 0
-13 -4 -16 -10z"/>
<path d="M7316 4645 c-3 -8 -1 -15 4 -15 6 0 10 7 10 15 0 8 -2 15 -4 15 -2 0
-6 -7 -10 -15z"/>
<path d="M7370 4650 c20 -13 33 -13 25 0 -3 6 -14 10 -23 10 -15 0 -15 -2 -2
-10z"/>
<path d="M7340 4641 c0 -6 4 -13 10 -16 6 -3 7 1 4 9 -7 18 -14 21 -14 7z"/>
<path d="M7386 4618 c3 -5 10 -6 15 -3 13 9 11 12 -6 12 -8 0 -12 -4 -9 -9z"/>
<path d="M7164 4245 c-10 -8 -14 -15 -8 -15 5 0 19 7 30 15 10 8 14 15 8 15
-5 0 -19 -7 -30 -15z"/>
<path d="M6500 4130 c0 -15 -2 -22 -17 -57 -7 -18 -9 -33 -4 -33 8 0 24 40 26
65 0 6 4 16 8 23 5 7 4 12 -2 12 -6 0 -11 -4 -11 -10z"/>
<path d="M6876 4122 c-3 -6 0 -13 6 -15 10 -4 10 -6 1 -6 -7 -1 -10 -8 -7 -16
4 -10 2 -13 -8 -10 -8 3 -21 -1 -28 -9 -7 -9 -16 -14 -20 -11 -15 9 -23 -16
-10 -28 10 -9 11 -9 5 2 -6 11 -4 13 9 8 10 -4 19 -1 22 8 4 8 9 13 13 11 4
-3 17 4 30 13 22 17 23 20 9 40 -9 13 -19 18 -22 13z"/>
<path d="M6520 4116 c0 -2 7 -7 16 -10 8 -3 12 -2 9 4 -6 10 -25 14 -25 6z"/>
<path d="M6917 4105 c3 -8 9 -12 14 -9 12 7 11 11 -5 17 -10 4 -13 1 -9 -8z"/>
<path d="M6765 4009 c-4 -6 -4 -13 -1 -16 3 -4 6 -1 6 6 0 7 5 9 10 6 6 -3 10
-1 10 4 0 14 -17 14 -25 0z"/>
<path d="M3620 5969 c0 -5 5 -7 10 -4 6 3 10 8 10 11 0 2 -4 4 -10 4 -5 0 -10
-5 -10 -11z"/>
<path d="M3560 5966 c0 -2 7 -9 15 -16 13 -11 14 -10 9 4 -5 14 -24 23 -24 12z"/>
<path d="M3606 4193 c-6 -14 -5 -15 5 -6 7 7 10 15 7 18 -3 3 -9 -2 -12 -12z"/>
<path d="M3627 4140 c3 -19 6 -42 7 -50 1 -8 6 -18 11 -22 6 -5 4 -12 -5 -18
-13 -8 -12 -10 3 -10 21 0 21 1 -3 75 -11 33 -17 44 -13 25z"/>
<path d="M3500 5604 c0 -8 5 -12 10 -9 6 4 8 11 5 16 -9 14 -15 11 -15 -7z"/>
<path d="M3535 5589 c-4 -6 -5 -12 -2 -15 2 -3 7 2 10 11 7 17 1 20 -8 4z"/>
<path d="M3440 5512 c0 -6 -8 -13 -17 -15 -16 -4 -16 -5 -1 -6 18 -1 34 16 24
26 -3 4 -6 1 -6 -5z"/>
<path d="M3381 5427 c2 -1 13 -9 24 -17 19 -14 19 -14 6 3 -7 9 -18 17 -24 17
-6 0 -8 -1 -6 -3z"/>
<path d="M3343 5405 c-8 -9 -9 -15 0 -24 13 -13 51 -15 42 -1 -3 5 -13 6 -23
3 -14 -6 -15 -4 -4 9 16 19 2 31 -15 13z"/>
<path d="M3166 4992 c-3 -5 1 -9 9 -9 8 0 12 4 9 9 -3 4 -7 8 -9 8 -2 0 -6 -4
-9 -8z"/>
<path d="M3105 4940 c2 -4 14 -10 26 -13 16 -4 19 -3 11 5 -14 14 -45 20 -37
8z"/>
<path d="M3077 4873 c-4 -3 -7 -11 -7 -17 0 -6 5 -5 12 2 6 6 9 14 7 17 -3 3
-9 2 -12 -2z"/>
<path d="M3087 4843 c-4 -3 -7 -13 -7 -22 1 -13 3 -13 11 2 11 19 8 33 -4 20z"/>
<path d="M2927 4783 c-7 -12 -3 -53 6 -53 4 0 10 0 15 0 4 0 1 4 -7 9 -10 7
-7 9 12 8 21 -2 23 -5 14 -16 -10 -12 -9 -13 6 -8 10 4 24 7 30 7 7 1 1 10
-12 21 -16 13 -31 17 -45 13 -18 -6 -19 -5 -7 10 8 9 9 16 3 16 -6 0 -13 -3
-15 -7z"/>
<path d="M3068 4773 c7 -3 16 -2 19 1 4 3 -2 6 -13 5 -11 0 -14 -3 -6 -6z"/>
<path d="M3021 4747 c-1 -21 21 -18 27 4 3 12 2 12 -6 0 -8 -11 -10 -11 -15 0
-4 10 -6 8 -6 -4z"/>
<path d="M2996 4712 c-3 -5 1 -9 9 -9 8 0 12 4 9 9 -3 4 -7 8 -9 8 -2 0 -6 -4
-9 -8z"/>
<path d="M2996 4632 c-3 -5 1 -9 9 -9 8 0 12 4 9 9 -3 4 -7 8 -9 8 -2 0 -6 -4
-9 -8z"/>
<path d="M2915 4610 c6 -24 5 -24 -9 -6 -9 11 -19 17 -22 13 -3 -3 3 -15 14
-27 17 -19 20 -19 26 -5 3 9 1 24 -4 33 -9 14 -10 12 -5 -8z"/>
<path d="M2750 4593 c0 -6 12 -19 28 -28 15 -10 24 -14 20 -10 -4 4 0 14 10
21 9 7 14 15 10 19 -3 3 -12 0 -19 -8 -12 -13 -16 -13 -31 0 -10 9 -18 11 -18
6z"/>
<path d="M2940 4585 c0 -8 4 -15 10 -15 5 0 7 7 4 15 -4 8 -8 15 -10 15 -2 0
-4 -7 -4 -15z"/>
<path d="M2746 4394 c-8 -21 -8 -24 3 -24 5 0 11 9 14 20 6 24 -8 27 -17 4z"/>
<path d="M2720 4339 c13 -23 22 -25 13 -2 -5 12 -3 14 8 8 8 -5 11 -4 6 0 -4
5 -14 10 -22 11 -12 2 -12 -2 -5 -17z"/>
<path d="M2150 3039 c0 -5 3 -8 8 -6 7 4 43 -29 41 -38 0 -3 2 -11 4 -18 3 -7
6 -5 6 5 1 12 6 15 17 11 14 -5 14 -3 3 15 -7 11 -16 19 -20 17 -3 -3 -15 2
-25 10 -23 17 -34 19 -34 4z"/>
<path d="M2150 2966 c0 -10 4 -15 9 -12 5 4 12 0 14 -6 4 -8 6 -9 6 -2 1 6 -6
17 -14 24 -12 10 -15 9 -15 -4z"/>
<path d="M3630 5862 c-21 -42 -22 -42 -16 -42 8 0 38 61 33 66 -2 2 -10 -8
-17 -24z"/>
<path d="M7155 5660 c-3 -5 -1 -10 4 -10 6 0 11 5 11 10 0 6 -2 10 -4 10 -3 0
-8 -4 -11 -10z"/>
<path d="M7283 5091 c-9 -11 -20 -18 -25 -15 -4 3 -8 0 -8 -5 0 -6 -6 -10 -12
-8 -7 1 -12 -4 -10 -12 2 -9 -3 -11 -15 -7 -9 4 -15 4 -11 1 11 -11 -30 -45
-104 -85 -23 -12 -35 -25 -32 -34 4 -10 15 -5 40 18 20 17 38 29 41 28 3 -2 9
0 12 5 3 4 24 22 46 38 22 16 49 37 60 47 11 9 29 24 40 32 11 9 14 16 7 16
-7 0 -20 -9 -29 -19z"/>
<path d="M7330 4930 c0 -5 7 -7 15 -4 8 4 15 8 15 10 0 2 -7 4 -15 4 -8 0 -15
-4 -15 -10z"/>
<path d="M5935 3359 c-4 -6 -5 -12 -2 -15 2 -3 7 2 10 11 7 17 1 20 -8 4z"/>
<path d="M5809 3313 c-13 -15 -12 -15 9 -4 23 12 28 21 13 21 -5 0 -15 -7 -22
-17z"/>
<path d="M5775 3300 c-3 -5 -1 -10 4 -10 6 0 11 5 11 10 0 6 -2 10 -4 10 -3 0
-8 -4 -11 -10z"/>
<path d="M5979 3301 c7 -5 10 -14 7 -20 -8 -12 6 -15 17 -4 9 8 -12 33 -27 33
-6 0 -5 -4 3 -9z"/>
<path d="M5915 3284 c-17 -17 -20 -28 -6 -20 5 4 11 3 14 -1 2 -5 2 -3 1 4 -2
6 7 13 19 15 19 3 20 4 5 10 -11 4 -24 1 -33 -8z"/>
<path d="M5720 3245 c-11 -13 -10 -14 4 -9 9 3 16 10 16 15 0 13 -6 11 -20 -6z"/>
<path d="M5675 3220 c-3 -6 1 -7 9 -4 18 7 21 14 7 14 -6 0 -13 -4 -16 -10z"/>
<path d="M7733 3508 c3 -9 1 -19 -6 -21 -7 -2 1 -6 16 -9 30 -6 31 -9 -12 42
-2 3 -1 -3 2 -12z"/>
<path d="M7810 3360 c-8 -5 -12 -12 -9 -15 4 -3 12 1 19 10 14 17 11 19 -10 5z"/>
<path d="M7900 3160 c-8 -5 -18 -6 -22 -4 -4 3 -8 0 -8 -5 0 -6 6 -11 14 -11
8 0 17 -8 19 -17 3 -11 5 -6 6 11 0 16 4 26 9 22 4 -4 7 -11 7 -14 0 -4 4 -13
9 -21 5 -8 4 -16 -4 -21 -15 -9 -40 -2 -40 11 0 5 -7 9 -15 9 -18 0 -19 -16
-3 -34 9 -9 20 -11 35 -5 13 5 23 5 23 0 0 -5 -6 -11 -12 -14 -8 -2 -9 -8 -4
-13 5 -5 11 -4 13 4 3 6 8 10 11 8 4 -2 8 11 9 30 1 19 -2 34 -7 34 -5 0 -7 6
-4 14 6 17 -18 27 -36 16z"/>
<path d="M7963 3085 c0 -8 4 -12 9 -9 5 3 6 10 3 15 -9 13 -12 11 -12 -6z"/>
<path d="M7877 3058 c-14 -8 -16 -13 -6 -24 24 -29 52 -9 31 23 -5 8 -13 8
-25 1z"/>
<path d="M7946 3033 c-13 -18 -16 -36 -13 -74 5 -50 17 -81 17 -43 0 11 10 31
22 44 12 13 15 21 7 18 -18 -6 -42 18 -33 33 5 9 11 7 19 -5 12 -15 13 -15 18
4 3 11 1 18 -4 14 -5 -3 -9 -1 -9 5 0 5 8 14 18 20 15 9 15 10 -4 8 -11 0 -28
-12 -38 -24z"/>
<path d="M8005 2990 c-3 -5 -2 -10 4 -10 5 0 13 5 16 10 3 6 2 10 -4 10 -5 0
-13 -4 -16 -10z"/>
<path d="M8017 2951 c-2 -10 0 -25 5 -32 8 -11 9 -11 5 1 -2 8 0 23 5 33 5 10
5 17 0 17 -6 0 -12 -9 -15 -19z"/>
<path d="M8043 2935 c0 -8 4 -12 9 -9 5 3 6 10 3 15 -9 13 -12 11 -12 -6z"/>
<path d="M6600 2659 c0 -5 5 -7 10 -4 6 3 10 8 10 11 0 2 -4 4 -10 4 -5 0 -10
-5 -10 -11z"/>
<path d="M6396 2623 c-6 -14 -5 -15 5 -6 7 7 10 15 7 18 -3 3 -9 -2 -12 -12z"/>
<path d="M3450 2480 c-9 -6 -10 -10 -3 -10 6 0 15 5 18 10 8 12 4 12 -15 0z"/>
</g>
</svg>
